<svg xmlns="http://www.w3.org/2000/svg" width="750" height="750" viewBox="0 0 750 750" version="1.1"><path d="M 105 189.559 L 105 345.118 106.250 344.363 C 106.938 343.947, 127.750 328.703, 152.500 310.486 C 244.121 243.051, 361.719 156.473, 368.667 151.340 L 375.834 146.044 484.667 226.175 C 544.525 270.246, 605.313 315, 619.750 325.627 L 646 344.948 646 189.474 L 646 34 375.500 34 L 105 34 105 189.559 M 191.819 322.194 L 188.166 331.500 187.484 336.153 L 186.802 340.807 188.374 346.216 L 189.947 351.626 192.224 355.004 C 193.476 356.862, 194.936 358.408, 195.469 358.441 L 196.439 358.500 199.719 352.163 L 203 345.825 203 339.069 L 203 332.313 201.104 326.907 C 200.060 323.933, 198.367 319.562, 197.340 317.194 L 195.472 312.887 191.819 322.194 M 555.556 317.500 C 554.593 319.700, 552.949 323.933, 551.902 326.907 L 550 332.313 550 338.507 L 550 344.702 551.170 348.101 C 551.814 349.970, 553.455 353.197, 554.817 355.272 L 557.295 359.043 559.055 357.450 C 561.319 355.401, 564.594 347.676, 565.469 342.321 L 566.152 338.141 564.620 332.160 C 563.777 328.871, 561.787 323.326, 560.197 319.840 L 557.306 313.500 555.556 317.500 M 220.099 336.050 L 214.698 342.500 212.359 347.500 L 210.020 352.500 210.086 358.500 L 210.152 364.500 211.355 367.821 L 212.558 371.141 217.140 367.108 L 221.721 363.075 223.798 358.247 L 225.876 353.418 226.456 348.459 L 227.037 343.500 226.268 336.550 L 225.500 329.600 220.099 336.050 M 526.515 338.806 L 525.818 347.612 527.014 352.050 C 527.671 354.491, 529.046 358.130, 530.070 360.137 L 531.931 363.785 536.196 367.436 L 540.461 371.086 541.654 367.793 L 542.848 364.500 542.902 358.500 L 542.956 352.500 540.949 348.076 L 538.942 343.651 533.357 336.826 C 530.286 333.072, 527.647 330, 527.493 330 C 527.338 330, 526.899 333.963, 526.515 338.806 M 164.309 345.576 L 164.946 354.547 166.143 358.023 C 166.802 359.936, 168.424 363.151, 169.749 365.169 L 172.158 368.838 176.154 371.607 L 180.150 374.376 181.060 372.938 C 181.989 371.469, 182.372 366.862, 182.009 361.500 C 181.557 354.809, 177.196 348.008, 168.838 340.961 L 163.672 336.605 164.309 345.576 M 581.739 343.250 L 575.288 349.500 573.671 352.648 C 572.782 354.379, 571.624 357.754, 571.097 360.148 L 570.141 364.500 570.943 368.790 C 571.385 371.149, 572.001 373.334, 572.312 373.645 L 572.878 374.212 577.471 370.913 L 582.064 367.615 584.986 361.557 L 587.908 355.500 588.583 346.250 L 589.258 337 588.724 337 C 588.430 337, 585.287 339.813, 581.739 343.250 M 226.330 372.996 C 219.433 378.504, 215.801 382.840, 213.531 388.272 L 212 391.936 212 397.968 C 212 404.723, 211.900 404.620, 216.300 402.345 C 226.776 396.927, 231.835 388.547, 233.560 373.750 L 234.230 368 233.365 368.034 C 232.889 368.052, 229.724 370.285, 226.330 372.996 M 519 370.316 C 519 374.511, 521.091 384.047, 522.975 388.442 L 524.826 392.759 528.439 396.373 L 532.053 399.986 535.987 401.993 C 541.225 404.666, 541.003 404.855, 540.978 397.750 L 540.956 391.500 539.133 387.500 C 536.676 382.111, 532.920 377.825, 525.963 372.472 C 519.243 367.301, 519 367.225, 519 370.316 M 162.565 387.021 L 167.219 396.031 171.226 399.461 L 175.233 402.891 179.795 404.446 C 182.304 405.301, 185.353 406, 186.572 406 L 188.787 406 187.865 401.895 C 185.497 391.355, 179.534 385.758, 165.206 380.624 L 157.912 378.011 162.565 387.021 M 585.194 381.524 L 578.889 383.950 575.056 386.705 L 571.223 389.460 568.942 392.790 L 566.661 396.119 565.459 400.810 L 564.258 405.500 566.152 405.823 L 568.047 406.145 572.883 404.539 L 577.719 402.933 581.731 399.498 L 585.744 396.063 589.872 388.129 C 595.453 377.402, 595.550 377.539, 585.194 381.524 M 241.500 394.126 C 239.300 395.770, 235.550 399.002, 233.167 401.308 L 228.835 405.500 226.768 409.500 L 224.700 413.500 224.216 420.250 L 223.731 427 224.905 427 C 225.551 427, 227.807 426.119, 229.918 425.042 L 233.756 423.084 237.734 418.565 L 241.712 414.046 243.352 408.773 C 244.255 405.873, 245.370 400.688, 245.831 397.250 L 246.669 391 246.084 391.068 C 245.763 391.106, 243.700 392.482, 241.500 394.126 M 507.177 397.250 C 507.642 400.688, 508.684 405.789, 509.492 408.587 L 510.961 413.674 515.102 418.379 L 519.244 423.084 523.156 425.080 L 527.069 427.076 528.160 426.401 L 529.252 425.726 528.759 419.584 L 528.266 413.441 526.214 409.471 L 524.162 405.500 519.331 400.937 C 514.799 396.656, 507.628 391, 506.732 391 C 506.512 391, 506.712 393.813, 507.177 397.250 M 245.582 419.606 L 239.684 426.500 237.921 430.500 C 236.951 432.700, 235.856 436.142, 235.487 438.148 L 234.816 441.796 235.979 447.398 L 237.142 453 237.891 453 C 238.303 453, 240.494 451.413, 242.759 449.474 L 246.878 445.948 249.485 440.620 L 252.092 435.292 252.604 428.396 L 253.116 421.500 252.298 417.106 L 251.481 412.711 245.582 419.606 M 500.474 419.394 L 499.750 426.159 500.360 430.609 L 500.970 435.059 503.124 440.067 L 505.279 445.075 509.761 449.021 L 514.244 452.967 515.055 452.466 C 515.501 452.191, 516.363 449.567, 516.972 446.637 L 518.078 441.309 516.994 436.404 L 515.910 431.500 512.521 426.500 C 510.657 423.750, 507.347 419.504, 505.166 417.065 L 501.199 412.630 500.474 419.394 M 166.701 421.124 C 168.240 423.925, 171.422 428.383, 173.772 431.030 L 178.044 435.843 182.272 437.870 L 186.500 439.897 191.716 440.573 L 196.932 441.249 196.011 438.040 C 195.505 436.275, 193.921 432.834, 192.490 430.393 L 189.889 425.955 186.195 423.545 L 182.500 421.135 176.500 419.194 C 173.200 418.126, 169.015 416.977, 167.201 416.641 L 163.902 416.030 166.701 421.124 M 580.100 418.048 L 572.700 419.986 568.384 422.515 L 564.068 425.045 561.554 428.341 C 559.476 431.064, 556 438.835, 556 440.755 C 556 441.031, 558.303 440.952, 561.117 440.579 L 566.235 439.900 570.628 437.835 L 575.022 435.769 579.261 430.993 C 581.592 428.367, 584.763 423.918, 586.308 421.109 L 589.115 416 588.308 416.055 C 587.863 416.085, 584.170 416.982, 580.100 418.048 M 259.868 443.401 C 257.321 446.755, 254.275 451.411, 253.100 453.747 L 250.963 457.994 250.359 462.401 L 249.754 466.808 250.978 471.907 L 252.201 477.006 253.191 477.618 L 254.181 478.230 258.063 474.438 L 261.946 470.647 264.110 466.074 L 266.275 461.500 266.209 453.500 C 266.173 449.100, 265.773 443.655, 265.321 441.401 L 264.500 437.301 259.868 443.401 M 487.086 446.058 L 485.910 454.500 486.929 459.749 C 488.228 466.439, 489.884 469.579, 494.592 474.271 L 498.375 478.042 499.416 477.695 L 500.456 477.348 501.791 472.924 L 503.127 468.500 502.639 463.282 L 502.151 458.063 499.037 452.282 C 497.325 449.102, 494.200 444.501, 492.092 442.058 L 488.261 437.615 487.086 446.058 M 177.414 458.914 L 183.266 464.827 188.383 467.647 L 193.500 470.467 200.664 470.484 L 207.828 470.500 208.560 469.770 L 209.293 469.041 206.686 465.101 L 204.079 461.162 200.584 458.497 L 197.090 455.831 192.386 454.416 L 187.682 453 179.622 453 L 171.563 453 177.414 458.914 M 560.222 454.470 L 555.944 455.806 552.432 458.484 L 548.921 461.162 546.314 465.101 L 543.707 469.041 544.440 469.770 L 545.172 470.500 552.336 470.484 L 559.500 470.467 564.617 467.647 L 569.734 464.827 575.586 458.914 L 581.437 453 572.969 453.067 L 564.500 453.134 560.222 454.470 M 470.622 463.239 L 468.744 469.500 468.254 476.540 L 467.764 483.580 469.955 488.673 L 472.145 493.765 474.995 496.495 L 477.844 499.225 480.149 494.863 L 482.454 490.500 482.477 482.948 L 482.500 475.396 478.807 467.948 C 476.776 463.852, 474.526 459.707, 473.807 458.739 L 472.500 456.977 470.622 463.239 M 274.876 466.637 L 270.500 475.273 270.533 482.887 L 270.566 490.500 272.861 494.863 L 275.156 499.225 278.005 496.495 L 280.855 493.765 283.045 488.673 L 285.236 483.580 284.767 476.540 L 284.298 469.500 282.466 463.750 C 280.119 456.379, 280.062 456.401, 274.876 466.637 M 294.475 482.149 L 290.540 490.500 290.160 497.765 L 289.780 505.030 292.463 510.515 L 295.147 516 296.067 516 C 296.573 516, 298.315 514.167, 299.938 511.927 L 302.889 507.854 304.049 502.262 L 305.210 496.671 304.187 491.586 C 303.624 488.789, 302.094 483.642, 300.787 480.149 L 298.410 473.799 294.475 482.149 M 451.739 481.605 C 450.249 485.947, 448.746 491.381, 448.399 493.680 L 447.767 497.860 448.979 502.911 L 450.191 507.963 453.102 511.982 C 456.727 516.986, 457.073 516.975, 460.066 511.750 L 462.500 507.500 462.500 499 L 462.500 490.500 458.474 482.105 L 454.447 473.710 451.739 481.605 M 195.305 481.790 L 194.110 482.550 200.119 487.525 C 203.425 490.261, 207.750 493.337, 209.732 494.360 L 213.336 496.220 219.069 496.740 L 224.802 497.260 228.401 496.585 L 232 495.909 232 494.428 L 232 492.947 227.683 488.630 L 223.365 484.312 218.504 482.656 L 213.644 481 205.072 481.015 L 196.500 481.031 195.305 481.790 M 534.086 482.717 L 529.671 484.276 525.336 488.612 L 521 492.947 521 494.428 L 521 495.909 524.599 496.585 L 528.198 497.260 534.100 496.725 L 540.001 496.190 544.542 493.528 C 547.039 492.065, 551.287 488.910, 553.981 486.517 L 558.878 482.167 557.357 481.584 C 556.521 481.263, 551.936 481.036, 547.168 481.079 L 538.500 481.158 534.086 482.717 M 317.351 497.591 L 313.686 505.500 313.225 512.540 L 312.764 519.580 314.992 524.759 C 316.217 527.607, 317.811 530.428, 318.533 531.028 L 319.847 532.118 322.455 528.309 L 325.062 524.500 326.617 519.197 L 328.173 513.893 327.470 508.697 L 326.768 503.500 324.355 497.055 C 323.028 493.510, 321.734 490.401, 321.479 490.146 C 321.225 489.891, 319.367 493.242, 317.351 497.591 M 428.677 497.177 C 427.259 501.205, 425.812 505.981, 425.461 507.790 L 424.823 511.081 425.497 515.977 L 426.170 520.873 429.335 526.108 L 432.500 531.343 433.500 531.346 L 434.500 531.350 437.250 525.996 L 440 520.641 440 514.977 L 440 509.313 438.050 503.645 C 436.978 500.528, 435.010 496.150, 433.678 493.916 L 431.256 489.855 428.677 497.177 M 223.650 506.149 C 219.882 506.624, 216.168 507.366, 215.396 507.798 L 213.994 508.583 221.112 513.297 L 228.230 518.011 233.668 519.592 L 239.107 521.173 243.803 520.509 C 246.387 520.144, 249.816 519.298, 251.424 518.630 L 254.348 517.414 250.513 513.580 L 246.679 509.745 242.589 507.992 C 240.340 507.028, 236.700 506.025, 234.500 505.762 L 230.500 505.284 223.650 506.149 M 516.723 506.064 L 511.945 506.842 507.538 509.425 L 503.131 512.008 501.055 514.923 L 498.979 517.838 502.240 518.890 C 504.033 519.468, 507.356 520.228, 509.624 520.578 L 513.748 521.215 519.259 519.613 L 524.770 518.011 531.873 513.307 L 538.976 508.603 537.747 507.843 C 537.070 507.425, 534.038 506.816, 531.009 506.489 C 527.979 506.162, 524.600 505.758, 523.500 505.590 C 522.400 505.422, 519.350 505.636, 516.723 506.064 M 236.500 527.815 L 229.500 529.585 233.500 532.146 C 240.271 536.481, 245.716 538.960, 250.914 540.075 L 255.894 541.143 262.188 539.530 C 265.650 538.643, 268.903 537.497, 269.417 536.983 L 270.353 536.047 268.428 533.920 C 267.369 532.750, 264.542 530.644, 262.146 529.239 L 257.789 526.686 250.644 526.366 L 243.500 526.045 236.500 527.815 M 494.885 527.380 C 490.867 528.816, 486.439 531.745, 483.690 534.787 L 481.881 536.789 486.690 538.639 L 491.500 540.489 497.500 540.415 L 503.500 540.340 508.491 538.120 C 511.236 536.898, 515.721 534.463, 518.458 532.706 L 523.433 529.513 516.467 527.838 L 509.500 526.163 504 526.125 L 498.500 526.088 494.885 527.380 M 127 542.845 C 127 546.291, 128.437 570.969, 129.352 583.250 L 129.706 588 128.252 588 C 127.453 588, 113.723 584.845, 97.743 580.989 C 81.763 577.133, 68.569 574.097, 68.424 574.243 C 68.278 574.388, 74.042 581.256, 81.233 589.504 L 94.306 604.500 119.403 629.503 C 133.206 643.254, 146.369 655.970, 148.654 657.761 L 152.808 661.016 159.404 653.043 C 167.436 643.333, 167.741 645.447, 156.814 635.087 L 147.627 626.377 160.785 610.644 L 173.942 594.910 160.402 579.205 C 152.955 570.567, 142.578 557.987, 137.342 551.250 C 126.528 537.337, 127 537.720, 127 542.845 M 612.353 555.236 C 605.230 564.181, 594.923 576.603, 589.451 582.840 C 583.978 589.077, 579.352 594.582, 579.172 595.075 L 578.843 595.970 591.982 610.735 L 605.120 625.500 595.618 634.754 L 586.116 644.008 593.138 652.530 L 600.161 661.051 605.331 656.785 C 608.174 654.439, 621.327 641.715, 634.560 628.510 L 658.620 604.500 671.710 589.500 C 678.909 581.250, 684.690 574.383, 684.556 574.239 C 684.421 574.096, 671.237 577.133, 655.257 580.989 C 639.277 584.845, 625.476 588, 624.589 588 L 622.976 588 623.463 584.250 C 624.317 577.664, 626.265 539.932, 625.776 539.443 C 625.517 539.184, 619.477 546.291, 612.353 555.236 M 263.084 546.400 L 255.668 548.663 261.084 551.732 C 264.063 553.420, 268.653 555.521, 271.285 556.401 L 276.070 558 280.857 558 L 285.644 558 290.260 556.427 C 292.799 555.562, 295.349 554.285, 295.927 553.588 L 296.977 552.323 292.739 549.318 C 290.407 547.665, 286.970 545.792, 285.101 545.156 L 281.702 544 276.101 544.069 L 270.500 544.138 263.084 546.400 M 467.500 545.225 C 465.850 545.812, 462.593 547.649, 460.261 549.307 L 456.023 552.323 457.073 553.588 C 457.651 554.285, 460.201 555.562, 462.740 556.427 L 467.356 558 472.143 558 L 476.930 558 481.715 556.401 C 484.347 555.521, 488.934 553.422, 491.910 551.736 L 497.319 548.671 489.466 546.335 L 481.612 544 476.056 544.079 L 470.500 544.158 467.500 545.225 M 182 596.761 C 174.025 606.342, 165.326 616.821, 162.669 620.049 L 157.838 625.917 164.282 631.945 C 194.308 660.033, 231.057 683.447, 268.500 698.347 L 282.500 703.918 294.952 707.494 C 310.975 712.096, 328.298 715.586, 344.558 717.488 L 357.488 719 375.070 719 L 392.653 719 403.576 717.921 C 427.510 715.556, 454.442 709.264, 478.412 700.435 L 491.324 695.679 508.412 687.076 L 525.500 678.472 535.834 671.986 C 552.532 661.506, 569.979 648.020, 589.832 630.245 L 595.163 625.472 574.972 602.740 L 554.780 580.008 547.209 587.078 C 506.789 624.826, 457.060 649.333, 406.058 656.639 L 394.500 658.295 376 658.311 L 357.500 658.327 345.942 656.655 C 339.585 655.736, 329.010 653.669, 322.442 652.063 L 310.500 649.142 298.574 644.905 L 286.649 640.667 271.074 632.928 L 255.500 625.189 243.500 617.217 C 229.700 608.049, 217.149 598.238, 205 587.120 L 196.500 579.342 182 596.761 M 529.126 615.853 L 525.751 618.652 535.987 632.836 C 541.616 640.637, 546.545 647.219, 546.939 647.463 L 547.656 647.906 551.364 645.268 L 555.072 642.629 554.528 641.213 C 554.229 640.433, 549.625 633.767, 544.298 626.398 L 534.611 613 533.556 613.027 C 532.975 613.042, 530.981 614.313, 529.126 615.853 M 212.750 617.080 C 211.787 617.641, 210.325 619.405, 209.500 621 L 208 623.901 208 626.387 L 208 628.874 212.566 635.543 L 217.132 642.213 216.598 643.606 L 216.063 645 213.781 644.985 C 210.921 644.965, 209.618 644.105, 208.108 641.239 L 206.918 638.977 207.209 637.304 L 207.500 635.630 203.663 634.146 L 199.827 632.663 198.877 634.081 L 197.927 635.500 198.438 638.977 L 198.948 642.453 200.818 644.977 C 201.847 646.364, 204.484 648.770, 206.678 650.323 L 210.668 653.146 214.671 653.683 L 218.675 654.220 221.808 652.599 L 224.941 650.979 226.124 648.768 L 227.307 646.557 227.184 643.279 L 227.061 640.001 222.519 633.367 L 217.977 626.733 219.111 625.367 C 220.659 623.500, 222.375 623.652, 224.345 625.829 L 226 627.657 226 629.853 L 226 632.050 228.250 632.891 C 229.488 633.354, 231.512 634.048, 232.750 634.434 L 235 635.135 235 630.912 L 235 626.689 232.442 623.335 L 229.884 619.982 225.982 617.991 L 222.080 616 218.290 616.030 L 214.500 616.061 212.750 617.080 M 509.080 629.839 C 503.349 633.514, 498.522 636.967, 498.353 637.511 L 498.047 638.500 499.905 640.919 L 501.763 643.337 505.375 641.206 L 508.987 639.075 512.299 644.288 C 514.121 647.154, 517.369 652.363, 519.517 655.863 C 521.666 659.362, 523.961 662.431, 524.618 662.683 L 525.812 663.142 529.400 660.821 L 532.989 658.500 532.580 657.390 C 532.355 656.780, 528.965 651.155, 525.048 644.890 L 517.925 633.500 519.581 632.500 C 520.492 631.950, 522.174 630.771, 523.318 629.879 L 525.399 628.258 523.677 625.629 L 521.954 623 520.727 623.079 C 520.052 623.122, 514.811 626.164, 509.080 629.839 M 238.575 645.075 L 232 658.052 232 660.991 L 232 663.930 235.012 667.361 L 238.023 670.791 242.501 672.895 L 246.978 675 250.055 675 L 253.131 675 255.316 673.837 C 258.370 672.210, 273.267 647.676, 271.852 646.603 C 269.213 644.603, 266.307 643, 265.318 643 L 264.081 643 257.915 654.580 L 251.749 666.159 250.372 666.687 L 248.996 667.216 246.527 666.596 L 244.058 665.976 242.910 663.833 L 241.763 661.689 247.882 649.912 C 251.247 643.435, 254 637.744, 254 637.267 L 254 636.399 249.575 634.249 L 245.150 632.099 238.575 645.075 M 488.870 641.007 L 485.240 642.925 484.561 648.360 C 484.187 651.350, 483.540 655.073, 483.122 656.635 L 482.363 659.473 479.737 653.737 L 477.111 648 476.015 648 C 475.413 648, 473.168 648.894, 471.026 649.987 L 467.131 651.974 474.683 667.737 C 478.837 676.407, 482.579 683.874, 482.999 684.331 L 483.762 685.162 487.881 683.061 L 492 680.959 492 679.946 C 492 679.389, 490.880 676.724, 489.512 674.023 L 487.023 669.112 487.817 666.965 L 488.612 664.817 495.376 670.362 L 502.140 675.906 506.570 673.754 C 512.371 670.935, 512.540 671.265, 501.021 662.916 L 491.041 655.684 491.621 653.092 C 492.590 648.757, 494.090 642.601, 494.627 640.750 L 495.135 639 493.817 639.044 C 493.093 639.069, 490.866 639.952, 488.870 641.007 M 281.457 654.863 C 279.784 655.883, 277.200 658.162, 275.716 659.926 L 273.017 663.133 271.433 668.583 L 269.848 674.033 270.532 677.267 C 270.908 679.045, 272.084 681.931, 273.146 683.679 L 275.075 686.858 279.606 689.052 L 284.137 691.245 288.069 690.718 L 292 690.190 292 691.560 L 292 692.930 293.934 693.965 C 294.998 694.534, 296.081 695, 296.340 695 C 296.599 695, 298.222 691.099, 299.948 686.331 L 303.084 677.662 302.661 676.558 L 302.237 675.453 295.868 673.217 C 287.962 670.440, 288.406 670.398, 287.136 674.039 L 286.077 677.078 288.788 678.241 C 292.566 679.862, 292.522 679.766, 290.506 681.994 L 288.690 684 287.068 684 C 286.175 684, 284.445 683.299, 283.223 682.443 L 281 680.887 281.022 677.193 L 281.044 673.500 283.077 669.018 C 284.195 666.553, 285.830 663.740, 286.710 662.768 L 288.310 661 290.500 661 L 292.690 661 294.261 662.750 L 295.833 664.500 296.166 667.461 L 296.500 670.421 300.428 671.232 L 304.356 672.043 305.214 670.771 L 306.073 669.500 305.582 666.144 L 305.091 662.788 303.469 660.313 L 301.847 657.837 296.674 655.428 L 291.500 653.020 288 653.014 L 284.500 653.007 281.457 654.863 M 455.500 655.713 C 454.400 655.978, 453.122 656.551, 452.660 656.987 L 451.820 657.780 455.469 669.469 L 459.118 681.159 458.809 683.296 L 458.500 685.433 455.759 686.967 L 453.017 688.500 451.259 687.433 L 449.500 686.366 445.500 674.250 C 443.300 667.586, 441.175 661.817, 440.779 661.429 L 440.057 660.724 435.505 661.999 L 430.952 663.273 431.636 665.387 C 432.013 666.549, 433.544 671.550, 435.039 676.500 C 436.535 681.450, 438.452 687.158, 439.300 689.184 L 440.842 692.867 444.090 694.546 L 447.337 696.226 451.870 695.604 L 456.404 694.983 460.729 692.889 L 465.055 690.795 466.637 687.735 L 468.220 684.675 467.720 680.951 C 467.446 678.904, 465.726 672.227, 463.900 666.114 L 460.579 655 459.039 655.116 C 458.193 655.180, 456.600 655.448, 455.500 655.713 M 315.661 663.677 C 315.375 664.680, 313.684 672.586, 311.902 681.248 L 308.662 696.995 309.253 697.586 C 309.938 698.271, 318.128 700.209, 318.541 699.785 C 318.693 699.628, 320.487 691.700, 322.526 682.167 L 326.234 664.834 325.367 664.020 C 324.890 663.572, 322.628 662.902, 320.340 662.530 L 316.181 661.855 315.661 663.677 M 420 665.670 C 418.075 665.862, 415.112 666.247, 413.415 666.524 L 410.330 667.029 408.497 677.014 C 406.266 689.178, 406.356 689.168, 401.857 677.748 L 398.213 668.500 392.857 668.777 C 389.910 668.929, 386.569 669.255, 385.431 669.500 L 383.363 669.947 385.146 686.724 C 386.127 695.951, 386.945 704.063, 386.965 704.750 L 387 706 390.941 706 L 394.882 706 395.352 705.239 C 395.611 704.821, 395.232 699.084, 394.511 692.489 C 393.790 685.895, 393.310 680.383, 393.444 680.240 C 393.578 680.097, 395.600 685.088, 397.937 691.332 C 400.275 697.576, 402.483 703.136, 402.844 703.687 L 403.500 704.690 407.154 704.247 L 410.809 703.804 412.904 692.559 C 414.057 686.374, 415 680.493, 415 679.490 L 415 677.667 415.632 678.298 C 415.979 678.646, 416.830 684.147, 417.523 690.523 C 418.216 696.899, 419.026 702.360, 419.324 702.657 L 419.865 703.199 424.072 702.488 L 428.279 701.777 427.654 693.639 C 427.310 689.162, 426.510 680.888, 425.877 675.250 L 424.726 665 424.113 665.160 C 423.776 665.248, 421.925 665.477, 420 665.670 M 334.542 668.195 C 334.302 668.913, 333.507 677.011, 332.777 686.192 L 331.449 702.884 333.474 703.428 C 334.588 703.728, 336.917 703.979, 338.649 703.986 L 341.797 704 342.505 696.950 L 343.213 689.899 347.805 690.200 L 352.397 690.500 352.115 696.500 C 351.960 699.800, 351.758 702.941, 351.666 703.480 L 351.500 704.461 356.249 705.398 C 358.861 705.913, 361.177 706.147, 361.395 705.917 C 361.898 705.389, 365.225 669.885, 364.809 669.494 C 364.639 669.334, 362.250 669.045, 359.500 668.852 L 354.500 668.500 353.920 675.246 C 353.234 683.231, 353.594 682.793, 348.180 682.228 L 343.859 681.776 344.180 674.638 L 344.500 667.500 339.740 667.195 L 334.980 666.890 334.542 668.195" stroke="none" fill="#fff100" fill-rule="evenodd"/><path d="M 375.247 33.750 L 645.994 34.004 646.250 190.252 L 646.506 346.500 646.753 189.750 L 647 33 375.750 33.248 L 104.500 33.496 375.247 33.750 M 250.962 246.780 L 126.424 338.500 143.855 338.774 C 163.955 339.089, 162.574 339.565, 161.235 332.788 L 160.193 327.520 161.846 329.660 C 162.756 330.837, 164.757 333.420, 166.293 335.400 L 169.085 339 176.843 339 L 184.600 339 185.855 332.923 L 187.110 326.846 190.437 319.173 C 192.267 314.953, 194.090 309.700, 194.487 307.500 L 195.210 303.500 197.948 311.500 C 199.453 315.900, 201.601 322, 202.722 325.056 C 203.842 328.111, 205.077 332.499, 205.467 334.806 L 206.176 339 210.397 339 L 214.619 339 219.274 333.607 C 221.835 330.641, 224.704 326.591, 225.650 324.607 C 226.596 322.623, 227.625 320.999, 227.935 320.998 L 228.500 320.996 228.161 327.576 L 227.822 334.156 228.430 336.578 L 229.038 339 376.500 339 L 523.962 339 524.570 336.578 L 525.178 334.156 524.839 327.671 L 524.500 321.185 525.257 321.656 C 525.674 321.915, 526.752 323.561, 527.654 325.313 C 528.556 327.066, 531.308 330.863, 533.769 333.750 L 538.243 339 542.421 339 L 546.600 339 547.794 333.217 L 548.989 327.435 552.476 318.967 C 554.394 314.310, 555.979 309.600, 555.997 308.500 C 556.016 307.400, 556.415 305.893, 556.885 305.151 L 557.740 303.802 558.450 307.651 C 558.840 309.768, 560.696 315.061, 562.574 319.414 L 565.989 327.327 567.195 333.164 L 568.400 339 576.157 339 L 583.915 339 586.707 335.400 C 588.243 333.420, 590.244 330.837, 591.154 329.660 L 592.807 327.520 591.765 332.788 C 590.427 339.558, 589.124 339.092, 608.492 338.775 L 625.268 338.500 500.643 246.750 C 432.100 196.287, 375.902 155.013, 375.760 155.030 C 375.617 155.046, 319.458 196.334, 250.962 246.780 M 203.310 338.500 L 203.320 344.500 203.725 341.232 C 203.947 339.435, 203.943 336.735, 203.715 335.232 L 203.300 332.500 203.310 338.500 M 549.320 339 L 549.320 345.500 549.723 342.250 C 549.945 340.462, 549.945 337.538, 549.723 335.750 L 549.320 332.500 549.320 339 M 209.286 358.500 L 209.300 363.500 209.718 360.736 C 209.947 359.216, 209.941 356.966, 209.704 355.736 L 209.272 353.500 209.286 358.500 M 543.286 358.500 L 543.300 363.500 543.718 360.736 C 543.947 359.216, 543.941 356.966, 543.704 355.736 L 543.272 353.500 543.286 358.500 M 211.272 398 L 211.272 402.500 211.706 400.250 C 211.944 399.012, 211.944 396.988, 211.706 395.750 L 211.272 393.500 211.272 398 M 541.272 398 L 541.272 402.500 541.706 400.250 C 541.944 399.012, 541.944 396.988, 541.706 395.750 L 541.272 393.500 541.272 398 M 232 401.500 C 229.571 403.975, 227.809 406, 228.084 406 C 228.359 406, 230.571 403.975, 233 401.500 C 235.429 399.025, 237.191 397, 236.916 397 C 236.641 397, 234.429 399.025, 232 401.500 M 519.500 401 C 521.648 403.200, 523.631 405, 523.906 405 C 524.181 405, 522.648 403.200, 520.500 401 C 518.352 398.800, 516.369 397, 516.094 397 C 515.819 397, 517.352 398.800, 519.500 401 M 250.405 413.155 L 249.691 414.309 250.781 413.636 L 251.870 412.962 252.275 416.231 L 252.680 419.500 252.840 415.750 L 253 412 252.059 412 C 251.541 412, 250.797 412.520, 250.405 413.155 M 500.160 415.750 L 500.320 419.500 500.725 416.231 L 501.130 412.962 502.219 413.636 L 503.309 414.309 502.595 413.155 C 502.203 412.520, 501.459 412, 500.941 412 L 500 412 500.160 415.750 M 193.313 431.919 C 194.500 434.087, 195.624 435.709, 195.810 435.524 C 196.294 435.039, 193.193 429.237, 192.084 428.552 L 191.153 427.977 193.313 431.919 M 174.776 452.733 C 177.128 452.945, 180.728 452.942, 182.776 452.727 L 186.500 452.336 178.500 452.343 L 170.500 452.349 174.776 452.733 M 570.776 452.733 C 573.128 452.945, 576.728 452.942, 578.776 452.727 L 582.500 452.336 574.500 452.343 L 566.500 452.349 570.776 452.733 M 177.500 460 C 180.209 462.750, 182.650 465, 182.925 465 C 183.200 465, 181.209 462.750, 178.500 460 C 175.791 457.250, 173.350 455, 173.075 455 C 172.800 455, 174.791 457.250, 177.500 460 M 574 460.500 C 571.571 462.975, 569.809 465, 570.084 465 C 570.359 465, 572.571 462.975, 575 460.500 C 577.429 458.025, 579.191 456, 578.916 456 C 578.641 456, 576.429 458.025, 574 460.500 M 257.978 474.523 L 254.563 478.046 253.031 477.464 L 251.500 476.882 252.768 478.158 L 254.035 479.435 258.253 475.218 C 260.573 472.898, 262.228 471, 261.931 471 C 261.635 471, 259.856 472.585, 257.978 474.523 M 285.272 478 L 285.272 482.500 285.706 480.250 C 285.944 479.012, 285.944 476.988, 285.706 475.750 L 285.272 473.500 285.272 478 M 467.286 478.500 L 467.300 483.500 467.718 480.736 C 467.947 479.216, 467.941 476.966, 467.704 475.736 L 467.272 473.500 467.286 478.500 M 204.250 480.716 C 205.762 480.945, 208.238 480.945, 209.750 480.716 L 212.500 480.300 207 480.300 L 201.500 480.300 204.250 480.716 M 543.250 480.716 C 544.763 480.945, 547.237 480.945, 548.750 480.716 L 551.500 480.300 546 480.300 L 540.500 480.300 543.250 480.716 M 430.600 489.600 L 429.953 491.286 430.476 491.810 L 431 492.333 431.040 490.917 L 431.080 489.500 432.572 492.250 C 434.675 496.127, 435.401 495.688, 433.399 491.750 C 431.269 487.563, 431.356 487.630, 430.600 489.600 M 289.300 499 L 289.300 504.500 289.716 501.750 C 289.945 500.238, 289.945 497.762, 289.716 496.250 L 289.300 493.500 289.300 499 M 463.286 499.500 L 463.300 504.500 463.718 501.736 C 463.947 500.216, 463.941 497.966, 463.704 496.736 L 463.272 494.500 463.286 499.500 M 219.750 497.706 C 220.988 497.944, 223.012 497.944, 224.250 497.706 L 226.500 497.272 222 497.272 L 217.500 497.272 219.750 497.706 M 528.750 497.706 C 529.987 497.944, 532.013 497.944, 533.250 497.706 L 535.500 497.272 531 497.272 L 526.500 497.272 528.750 497.706 M 312.286 514.500 L 312.300 519.500 312.718 516.736 C 312.947 515.216, 312.941 512.966, 312.704 511.736 L 312.272 509.500 312.286 514.500 M 440.286 514.500 L 440.300 519.500 440.718 516.736 C 440.947 515.216, 440.941 512.966, 440.704 511.736 L 440.272 509.500 440.286 514.500 M 126.160 541.250 L 126.320 545.500 126.728 542.184 L 127.137 538.868 128.818 540.167 L 130.500 541.466 128.595 539.233 C 126.058 536.259, 125.975 536.329, 126.160 541.250 M 624.405 539.233 L 622.500 541.466 624.178 540.170 L 625.855 538.875 626.278 541.688 L 626.700 544.500 626.850 540.750 C 627.026 536.361, 626.914 536.292, 624.405 539.233 M 274.750 543.706 C 275.988 543.944, 278.012 543.944, 279.250 543.706 L 281.500 543.272 277 543.272 L 272.500 543.272 274.750 543.706 M 473.750 543.706 C 474.988 543.944, 477.012 543.944, 478.250 543.706 L 480.500 543.272 476 543.272 L 471.500 543.272 473.750 543.706 M 254 548.480 C 254 548.743, 255.800 549.878, 258 551 C 262.958 553.530, 263.250 552.935, 258.443 550.099 C 254.779 547.937, 254 547.653, 254 548.480 M 625.286 556.500 L 625.300 561.500 625.718 558.736 C 625.947 557.216, 625.941 554.966, 625.704 553.736 L 625.272 551.500 625.286 556.500 M 127.286 557.500 L 127.300 562.500 127.718 559.736 C 127.947 558.216, 127.941 555.966, 127.704 554.736 L 127.272 552.500 127.286 557.500 M 624.300 573 L 624.300 578.500 624.716 575.750 C 624.945 574.237, 624.945 571.763, 624.716 570.250 L 624.300 567.500 624.300 573 M 128.286 573.500 L 128.300 578.500 128.718 575.736 C 128.947 574.216, 128.941 571.966, 128.704 570.736 L 128.272 568.500 128.286 573.500 M 201.500 584 C 204.209 586.750, 206.650 589, 206.925 589 C 207.200 589, 205.209 586.750, 202.500 584 C 199.791 581.250, 197.350 579, 197.075 579 C 196.800 579, 198.791 581.250, 201.500 584 M 547.966 585.750 L 542.500 591.500 548.250 586.034 C 553.592 580.956, 554.458 580, 553.716 580 C 553.560 580, 550.972 582.587, 547.966 585.750 M 170.821 591.316 L 174.035 594.631 173.268 595.476 L 172.500 596.321 173.837 595.548 L 175.174 594.775 171.891 591.387 C 170.085 589.524, 168.383 588, 168.108 588 C 167.833 588, 169.054 589.492, 170.821 591.316 M 92.958 603.250 C 95.410 605.862, 97.548 608, 97.708 608 C 98.459 608, 97.665 607.102, 93.250 602.958 L 88.500 598.500 92.958 603.250 M 658 604.500 C 655.571 606.975, 653.809 609, 654.084 609 C 654.359 609, 656.571 606.975, 659 604.500 C 661.429 602.025, 663.191 600, 662.916 600 C 662.641 600, 660.429 602.025, 658 604.500 M 116.500 628 C 125.287 636.800, 132.702 644, 132.977 644 C 133.252 644, 126.287 636.800, 117.500 628 C 108.713 619.200, 101.298 612, 101.023 612 C 100.748 612, 107.713 619.200, 116.500 628 M 635.487 628.250 L 621.500 642.500 635.750 628.513 C 648.988 615.520, 650.453 614, 649.737 614 C 649.592 614, 643.179 620.413, 635.487 628.250 M 149.459 624.045 L 147.608 626.091 155.045 633.295 L 162.482 640.500 155.553 633.286 L 148.625 626.072 150.467 624.036 C 151.481 622.916, 152.085 622, 151.810 622 C 151.535 622, 150.477 622.920, 149.459 624.045 M 163.958 632.250 C 166.410 634.862, 168.548 637, 168.708 637 C 169.459 637, 168.665 636.102, 164.250 631.958 L 159.500 627.500 163.958 632.250 M 585.453 634.250 L 581.500 638.500 585.750 634.547 C 589.702 630.871, 590.460 630, 589.703 630 C 589.540 630, 587.627 631.913, 585.453 634.250 M 592.966 636.750 L 587.500 642.500 593.250 637.034 C 598.592 631.956, 599.458 631, 598.716 631 C 598.560 631, 595.972 633.587, 592.966 636.750 M 488.750 641.068 L 485 643.048 485.116 644.774 L 485.232 646.500 485.657 644.915 L 486.083 643.331 489.610 641.649 L 493.137 639.967 494.069 640.542 L 495 641.118 495 640.059 L 495 639 493.750 639.044 C 493.063 639.069, 490.813 639.979, 488.750 641.068 M 611.462 651.250 L 606.500 656.500 611.750 651.538 C 614.638 648.808, 617 646.446, 617 646.288 C 617 645.541, 616.074 646.372, 611.462 651.250 M 140.958 651.250 C 143.410 653.862, 145.548 656, 145.708 656 C 146.459 656, 145.665 655.102, 141.250 650.958 L 136.500 646.500 140.958 651.250 M 478.202 652.478 C 479.398 654.941, 480.549 656.785, 480.758 656.575 C 481.211 656.123, 477.170 648, 476.493 648 C 476.236 648, 477.005 650.015, 478.202 652.478 M 285.750 653.706 C 286.988 653.944, 289.012 653.944, 290.250 653.706 L 292.500 653.272 288 653.272 L 283.500 653.272 285.750 653.706 M 602.493 659.008 L 600.675 661.016 598.588 659.258 L 596.500 657.500 598.419 659.766 L 600.338 662.031 602.669 659.841 C 603.951 658.637, 605 657.505, 605 657.326 C 605 656.582, 604.206 657.114, 602.493 659.008 M 371.280 658.736 C 373.909 658.943, 377.959 658.940, 380.280 658.731 L 384.500 658.349 375.500 658.355 L 366.500 658.360 371.280 658.736 M 296.404 667.991 L 296.500 670.483 298.270 670.640 L 300.039 670.796 298.580 670.337 L 297.121 669.877 296.714 667.688 L 296.307 665.500 296.404 667.991 M 341.691 667.714 L 343.882 668.121 344.284 670.811 L 344.686 673.500 344.593 670.500 L 344.500 667.500 342 667.404 L 339.500 667.307 341.691 667.714 M 354.390 669.427 C 354.088 670.212, 354.041 671.900, 354.285 673.177 L 354.728 675.500 354.864 672.333 L 355 669.167 356.250 668.662 L 357.500 668.158 356.219 668.079 L 354.937 668 354.390 669.427 M 362.660 669.769 L 363.820 670.507 364.260 673.503 L 364.700 676.500 364.850 672.750 L 365 669 363.250 669.015 L 361.500 669.031 362.660 669.769 M 478.047 674.283 C 477.981 675.388, 482.923 685, 483.557 685 C 484.506 685, 492 680.970, 492 680.459 C 492 680.184, 490.156 680.900, 487.903 682.049 C 485.650 683.199, 483.680 683.996, 483.525 683.820 C 483.370 683.644, 482.085 681.250, 480.668 678.500 C 479.252 675.750, 478.072 673.852, 478.047 674.283 M 415.070 676.250 C 415.109 676.938, 415.527 678.400, 416 679.500 L 416.859 681.500 416.930 678.250 L 417 675 416 675 L 415 675 415.070 676.250 M 343.316 680.500 L 343.517 682.500 347.508 682.619 L 351.500 682.738 347.812 682.313 L 344.125 681.887 343.620 680.193 L 343.115 678.500 343.316 680.500 M 459.116 682.693 L 459 684.887 456.777 686.443 L 454.555 688 455.623 688 C 456.210 688, 457.474 687.133, 458.433 686.074 L 460.175 684.149 459.704 682.324 L 459.232 680.500 459.116 682.693 M 342.394 690.416 C 342.095 691.194, 342.042 693.107, 342.276 694.666 L 342.700 697.500 342.850 693.813 L 343 690.127 346.250 689.723 L 349.500 689.320 346.219 689.160 L 342.937 689 342.394 690.416 M 395 703.267 L 395 704.867 392.250 705.284 L 389.500 705.700 392.281 705.850 L 395.063 706 395.655 704.457 L 396.247 702.914 395.624 702.290 L 395 701.667 395 703.267 M 361 703.934 L 361 704.867 358.250 705.284 L 355.500 705.700 358.750 705.850 L 362 706 362 704.500 C 362 703.675, 361.775 703, 361.500 703 C 361.225 703, 361 703.420, 361 703.934 M 368.750 719.743 C 372.738 719.932, 379.262 719.932, 383.250 719.743 L 390.500 719.397 376 719.397 L 361.500 719.397 368.750 719.743" stroke="none" fill="#aacd06" fill-rule="evenodd"/><path d="M 98 196.756 L 98 367.512 99.517 380.506 C 107.423 448.205, 136.434 512.295, 182.920 564.753 L 191.119 574.007 185.420 580.753 C 182.285 584.464, 179.389 587.632, 178.984 587.792 L 178.247 588.084 166.796 574.792 C 153.239 559.054, 142.907 546.231, 129.497 528.500 C 124.089 521.350, 119.234 515.050, 118.708 514.500 L 117.752 513.500 118.376 526.500 C 118.720 533.650, 119.495 547.150, 120.098 556.500 C 120.702 565.850, 121.039 574.647, 120.848 576.050 L 120.500 578.600 84.750 569.960 L 49 561.320 49 562.121 C 49 563.620, 67.362 585.548, 84.906 605 C 101.541 623.443, 142.079 663.125, 152.109 670.782 L 153.718 672.011 163.024 660.629 L 172.330 649.248 181.920 656.874 C 296.865 748.286, 446.621 750.220, 563.668 661.806 C 571.172 656.138, 578.029 650.965, 578.906 650.310 L 580.500 649.121 589.856 660.560 L 599.212 672 602.886 669.090 C 622.387 653.645, 664.252 610.512, 693.239 576 C 707.992 558.435, 714.732 558.531, 646 575.321 L 632.500 578.619 632.135 577.093 C 631.934 576.254, 632.551 562.215, 633.506 545.897 C 634.461 529.578, 635.075 515.728, 634.871 515.120 L 634.500 514.013 626.003 525.256 C 606.861 550.585, 575.855 587.988, 573.500 588.592 L 572.500 588.848 566.364 581.700 L 560.227 574.552 566.725 567.534 C 614.805 515.603, 646.353 444.631, 652.974 373.500 L 653.998 362.500 653.999 194.250 L 654 26 376 26 L 98 26 98 196.756 M 105.001 197.750 L 105.002 362.500 106.021 373.500 C 116.800 489.802, 196.238 598.931, 298 637.230 L 308.500 641.182 321.550 644.529 L 334.600 647.875 346.550 649.541 L 358.500 651.206 376 651.214 L 393.500 651.223 405.500 649.504 L 417.500 647.785 430.500 644.518 L 443.500 641.251 453.500 637.557 C 459 635.526, 469.952 630.682, 477.837 626.792 L 492.174 619.721 505.337 610.949 C 540.852 587.281, 569.469 557.915, 594.881 519.059 L 602.804 506.944 610.810 491.222 C 620.763 471.676, 625.603 460.064, 631.881 440.668 L 636.791 425.500 639.430 413.725 C 640.882 407.249, 643.045 395.774, 644.238 388.225 L 646.406 374.500 646.736 203.750 L 647.065 33 376.033 33 L 105 33 105.001 197.750 M 290.497 209.588 C 243.749 244.013, 183.078 288.676, 155.672 308.839 L 105.845 345.500 133.811 345.765 L 161.778 346.031 162.443 350.765 C 163.417 357.705, 164.943 361.994, 168.065 366.564 L 170.841 370.629 175.170 373.448 L 179.500 376.267 185.962 383.277 C 189.516 387.133, 193.774 391.108, 195.424 392.112 L 198.424 393.936 200.665 402.218 C 201.898 406.773, 202.928 411.070, 202.953 411.767 L 203 413.034 198.187 410.595 C 192.221 407.571, 191.622 406.827, 189.664 400 L 188.086 394.500 185.698 391.266 C 181.697 385.847, 173.835 380.937, 164.500 378.026 C 162.300 377.339, 158.587 375.684, 156.250 374.347 L 152 371.916 152 372.899 C 152 373.440, 152.443 374.156, 152.984 374.490 C 153.525 374.825, 156.485 380.018, 159.561 386.032 L 165.153 396.965 169.632 400.907 L 174.111 404.850 178.734 406.425 C 181.276 407.291, 183.983 408, 184.748 408 C 185.513 408, 188.068 409.327, 190.426 410.949 C 192.783 412.571, 197.139 414.972, 200.106 416.286 L 205.500 418.674 207.420 424.087 C 208.476 427.064, 211.289 433.719, 213.670 438.875 C 216.052 444.031, 218 448.375, 218 448.529 C 218 448.994, 208.005 445.043, 203.955 442.977 L 200.159 441.040 196.526 433.488 L 192.894 425.936 188.697 422.885 C 183.548 419.142, 180.462 417.830, 171.628 415.629 C 167.849 414.687, 163.029 413.035, 160.918 411.958 C 155.742 409.317, 155.148 409.491, 158.208 412.750 C 159.628 414.262, 162.683 418.650, 164.996 422.500 C 167.309 426.350, 170.843 431.226, 172.850 433.336 L 176.500 437.173 181.031 439.492 L 185.562 441.812 190.531 442.538 L 195.500 443.264 201.165 446.189 C 204.281 447.798, 210.131 450.371, 214.165 451.907 L 221.500 454.699 226.742 462.599 L 231.984 470.500 230.417 470.838 C 229.554 471.024, 225.170 470.691, 220.674 470.097 L 212.500 469.019 210.285 466.260 C 209.067 464.742, 206.862 462.011, 205.385 460.191 L 202.699 456.881 197.608 454.301 L 192.516 451.721 181.008 450.893 L 169.500 450.065 166.194 449.086 L 162.887 448.107 172.537 457.304 L 182.187 466.500 187.343 469.500 L 192.500 472.500 202 472.702 L 211.500 472.904 222.795 474.428 C 236.558 476.284, 238.509 477.632, 249.872 493.129 L 251.244 495 247.372 494.956 C 245.242 494.932, 241.635 494.552, 239.356 494.110 L 235.213 493.307 229.851 487.815 L 224.489 482.323 219.439 480.646 L 214.390 478.969 200.945 479.055 L 187.500 479.141 185.750 478.464 L 184 477.786 184 478.373 C 184 478.695, 185.688 479.848, 187.750 480.934 C 189.813 482.020, 194.416 485.414, 197.979 488.476 L 204.459 494.044 208.979 496.272 L 213.500 498.500 221.500 498.466 C 225.900 498.447, 230.625 498.277, 232 498.088 C 233.375 497.898, 239.394 498.272, 245.376 498.918 L 256.251 500.094 264.606 507.797 L 272.960 515.500 264.519 515.788 L 256.077 516.077 251.938 511.938 L 247.798 507.798 243.649 505.982 C 241.367 504.983, 237.457 503.866, 234.960 503.501 L 230.419 502.836 220.532 504.520 L 210.645 506.204 207.323 505.665 C 203.039 504.970, 203.091 505.722, 207.451 507.544 C 209.349 508.337, 214.510 511.442, 218.919 514.445 L 226.935 519.903 232.149 521.452 C 238.509 523.340, 241.946 523.390, 249.040 521.696 L 254.500 520.393 263.500 520.589 C 268.450 520.697, 274.099 520.834, 276.052 520.893 L 279.605 521 286.430 526.241 L 293.256 531.482 285.878 533.200 C 281.820 534.145, 277.219 534.936, 275.653 534.959 L 272.807 535 268.348 531.075 L 263.889 527.150 259.266 525.575 L 254.644 524 249.072 524.007 L 243.500 524.014 235.187 526.007 C 230.614 527.103, 225.214 528.021, 223.187 528.047 L 219.500 528.094 224.279 529.961 C 226.907 530.988, 231.187 533.195, 233.788 534.864 C 236.390 536.533, 240.575 538.809, 243.088 539.921 L 247.658 541.942 253.079 542.552 L 258.500 543.161 265 541.093 L 271.500 539.026 275.500 538.978 C 277.700 538.951, 282.425 538.286, 286 537.500 C 289.575 536.714, 294.075 536.064, 296 536.057 L 299.500 536.043 306.260 540.422 L 313.020 544.802 306.398 547.901 C 298.423 551.633, 299.947 551.666, 294.252 547.643 C 291.639 545.796, 287.970 543.771, 286.101 543.143 L 282.702 542 276.389 542 L 270.076 542 262.288 544.487 L 254.500 546.974 250.191 546.987 L 245.882 547 246.500 548 L 247.118 549 248.809 548.996 L 250.500 548.993 260.932 554.172 L 271.363 559.352 278.940 559.790 L 286.516 560.229 290.380 558.614 C 292.505 557.727, 294.948 557, 295.809 557 C 296.669 557, 301.841 554.911, 307.302 552.359 L 317.231 547.717 324.366 551 C 328.290 552.805, 336.371 555.937, 342.325 557.960 L 353.150 561.639 349.323 562.785 C 338.422 566.051, 314.780 585.948, 311.256 594.821 L 310.732 596.141 314.553 600.055 L 318.375 603.968 325.258 596.498 L 332.142 589.027 340.321 582.458 L 348.500 575.888 356.500 571.949 L 364.500 568.010 370.532 566.503 L 376.564 564.996 382.532 566.537 C 390.716 568.649, 400.021 573.126, 407.893 578.740 L 414.500 583.450 424.369 593.225 C 435.698 604.446, 434.845 604.080, 438.896 599.465 C 442.882 594.925, 443.165 595.826, 434.667 585.989 L 427.335 577.500 421.917 573.382 C 414.304 567.595, 411.816 566.108, 405.344 563.478 L 399.661 561.168 404.081 560.055 C 410.063 558.548, 420.006 554.862, 428.634 550.951 L 435.769 547.717 445.698 552.359 C 451.159 554.911, 456.331 557, 457.191 557 C 458.052 557, 460.371 557.675, 462.346 558.500 L 465.936 560 471.842 560 L 477.749 560 481.851 558.553 C 484.107 557.756, 489.635 555.281, 494.135 553.053 L 502.317 549 504.100 549 L 505.882 549 506.500 548 L 507.118 547 502.809 546.987 L 498.500 546.974 490.712 544.487 L 482.924 542 476.611 542 L 470.298 542 466.899 543.143 C 465.030 543.771, 461.361 545.796, 458.748 547.643 C 452.983 551.715, 453.646 551.704, 446.194 547.861 L 440.106 544.721 446.803 540.382 L 453.500 536.043 457 536.057 C 458.925 536.064, 463.425 536.714, 467 537.500 C 470.575 538.286, 475.230 538.946, 477.345 538.965 L 481.190 539 488.136 541.110 L 495.083 543.220 500.572 542.534 L 506.060 541.849 512.780 538.289 C 516.476 536.331, 522.425 533.221, 526 531.379 L 532.500 528.029 529.329 528.015 C 527.585 528.007, 522.185 527.052, 517.329 525.894 L 508.500 523.787 501.356 524.237 L 494.211 524.686 489.856 527.248 C 487.460 528.657, 484.409 530.977, 483.076 532.405 L 480.651 535 477.576 534.959 C 475.884 534.936, 471.180 534.145, 467.122 533.200 L 459.744 531.482 466.570 526.241 L 473.395 521 476.448 520.896 C 478.126 520.839, 483.775 520.705, 489 520.598 L 498.500 520.404 503.960 521.702 C 511.060 523.390, 514.496 523.339, 520.851 521.452 L 526.065 519.903 534.081 514.445 C 538.490 511.442, 543.651 508.337, 545.549 507.544 C 547.447 506.751, 549 505.865, 549 505.576 L 549 505.050 545.973 505.655 L 542.945 506.261 532.111 504.518 L 521.277 502.775 515.911 503.926 L 510.545 505.076 506.346 507.538 L 502.146 509.999 499.765 513.041 L 497.384 516.083 488.645 515.792 L 479.907 515.500 488.400 507.731 L 496.894 499.963 507.197 498.858 C 512.864 498.250, 518.625 497.885, 520 498.045 C 521.375 498.205, 526.325 498.373, 531 498.418 L 539.500 498.500 544.021 496.272 L 548.541 494.044 555.021 488.476 C 558.584 485.414, 563.188 482.020, 565.250 480.934 C 567.313 479.848, 569 478.695, 569 478.373 L 569 477.786 567.250 478.464 L 565.500 479.141 552.055 479.055 L 538.610 478.969 533.612 480.629 L 528.613 482.289 522.861 488.059 L 517.109 493.829 510.630 494.523 C 507.066 494.905, 503.625 495.042, 502.982 494.827 L 501.814 494.438 508.957 485.981 C 517.703 475.626, 516.518 476.269, 530.205 474.451 L 541.500 472.950 551 472.725 L 560.500 472.500 565.671 469.500 L 570.843 466.500 580.356 457.349 L 589.869 448.197 586.521 449.122 C 584.680 449.630, 578.072 450.443, 571.837 450.928 L 560.500 451.810 556.871 453.368 C 552.034 455.444, 547.578 459.300, 543.994 464.508 L 541.051 468.786 532.615 469.984 C 527.975 470.642, 523.467 471.028, 522.597 470.841 L 521.016 470.500 526.258 462.643 L 531.500 454.785 540.644 451.054 C 545.674 449.001, 551.318 446.420, 553.186 445.318 L 556.584 443.313 561.937 442.603 L 567.290 441.893 571.395 439.840 L 575.500 437.788 579.331 434.144 L 583.161 430.500 587.152 423.704 C 589.346 419.966, 592.507 415.354, 594.175 413.454 C 597.670 409.473, 597.372 409.259, 592.082 411.958 C 589.971 413.035, 585.151 414.673, 581.372 415.598 C 577.592 416.523, 572.223 418.334, 569.441 419.622 L 564.382 421.965 561.941 424.525 L 559.500 427.086 556 434.293 L 552.500 441.500 544 445.140 C 533.698 449.553, 534.188 450.050, 538.840 439.908 C 540.961 435.284, 543.777 428.621, 545.098 425.102 L 547.500 418.703 553 416.193 C 556.025 414.812, 560.381 412.404, 562.680 410.841 C 564.979 409.278, 567.487 408, 568.252 408 C 569.017 408, 571.724 407.291, 574.266 406.425 L 578.889 404.850 583.442 400.842 L 587.995 396.834 593.127 386.432 C 595.949 380.712, 598.875 375.519, 599.629 374.893 C 600.383 374.267, 601 373.324, 601 372.796 L 601 371.837 597.750 373.841 C 595.962 374.944, 590.767 377.206, 586.205 378.869 L 577.910 381.893 573.875 384.860 C 571.656 386.492, 568.732 389.329, 567.377 391.164 L 564.914 394.500 563.336 400 C 561.378 406.827, 560.779 407.571, 554.813 410.595 L 550 413.034 550.047 411.767 C 550.072 411.070, 551.091 406.816, 552.310 402.313 L 554.526 394.126 558.630 391.153 C 560.887 389.518, 564.706 385.865, 567.117 383.036 L 571.500 377.891 577.692 373.437 L 583.883 368.982 586.878 362.741 L 589.872 356.500 590.528 351.266 L 591.183 346.031 618.508 345.766 L 645.833 345.500 511.366 246.500 C 437.410 192.050, 376.583 147.387, 376.197 147.249 C 375.811 147.111, 337.246 175.164, 290.497 209.588 M 250.962 246.780 L 126.424 338.500 143.855 338.774 C 163.955 339.089, 162.574 339.565, 161.235 332.788 L 160.193 327.520 161.846 329.660 C 162.756 330.837, 164.757 333.420, 166.293 335.400 L 169.085 339 176.843 339 L 184.600 339 185.855 332.923 L 187.110 326.846 190.437 319.173 C 192.267 314.953, 194.090 309.700, 194.487 307.500 L 195.210 303.500 197.948 311.500 C 199.453 315.900, 201.601 322, 202.722 325.056 C 203.842 328.111, 205.077 332.499, 205.467 334.806 L 206.176 339 210.397 339 L 214.619 339 219.274 333.607 C 221.835 330.641, 224.704 326.591, 225.650 324.607 C 226.596 322.623, 227.625 320.999, 227.935 320.998 L 228.500 320.996 228.161 327.576 L 227.822 334.156 228.430 336.578 L 229.038 339 376.500 339 L 523.962 339 524.570 336.578 L 525.178 334.156 524.839 327.671 L 524.500 321.185 525.257 321.656 C 525.674 321.915, 526.752 323.561, 527.654 325.313 C 528.556 327.066, 531.308 330.863, 533.769 333.750 L 538.243 339 542.421 339 L 546.600 339 547.794 333.217 L 548.989 327.435 552.476 318.967 C 554.394 314.310, 555.979 309.600, 555.997 308.500 C 556.016 307.400, 556.415 305.893, 556.885 305.151 L 557.740 303.802 558.450 307.651 C 558.840 309.768, 560.696 315.061, 562.574 319.414 L 565.989 327.327 567.195 333.164 L 568.400 339 576.157 339 L 583.915 339 586.707 335.400 C 588.243 333.420, 590.244 330.837, 591.154 329.660 L 592.807 327.520 591.765 332.788 C 590.427 339.558, 589.124 339.092, 608.492 338.775 L 625.268 338.500 500.643 246.750 C 432.100 196.287, 375.902 155.013, 375.760 155.030 C 375.617 155.046, 319.458 196.334, 250.962 246.780 M 192.306 319.241 C 190.549 323.327, 188.583 328.771, 187.936 331.339 L 186.760 336.009 187.180 341.755 L 187.600 347.500 189.982 352.260 C 191.292 354.878, 193.124 357.708, 194.053 358.548 L 195.742 360.077 198.781 355.288 L 201.820 350.500 202.904 346.500 C 203.501 344.300, 203.991 340.635, 203.994 338.355 L 204 334.211 201.955 327.855 C 200.830 324.360, 198.918 319.320, 197.705 316.656 L 195.500 311.812 192.306 319.241 M 554.244 319.251 C 552.577 323.238, 550.717 328.300, 550.112 330.500 L 549.011 334.500 549.006 339.124 L 549 343.749 550.421 347.777 C 551.203 349.992, 553.065 353.652, 554.559 355.910 L 557.276 360.016 558.796 358.758 C 559.633 358.066, 561.595 354.800, 563.158 351.500 L 565.998 345.500 565.999 339.718 L 566 333.937 564.072 328.218 C 563.011 325.073, 561.048 320.138, 559.710 317.251 L 557.276 312.003 554.244 319.251 M 220 335.486 C 216.975 339.136, 213.449 344.179, 212.164 346.692 L 209.828 351.262 209.351 356.381 L 208.873 361.500 210.209 365.924 L 211.544 370.348 212.729 370.743 L 213.914 371.138 218.228 366.819 L 222.542 362.500 224.495 358.500 L 226.449 354.500 226.766 346 L 227.082 337.500 226.291 333.175 L 225.500 328.850 220 335.486 M 526.652 332.690 C 526.305 334.786, 526.017 339.907, 526.011 344.072 L 526 351.644 527.667 356.537 L 529.334 361.430 534.194 366.289 L 539.054 371.149 540.255 370.748 L 541.456 370.348 542.791 365.924 L 544.127 361.500 543.650 356.387 L 543.173 351.275 540.672 346.387 L 538.170 341.500 533.485 336 C 530.908 332.975, 528.458 330.136, 528.040 329.690 L 527.281 328.881 526.652 332.690 M 164 344.182 L 164 352.637 165.495 357.672 L 166.991 362.708 171.110 367.387 L 175.229 372.067 178.058 373.530 L 180.886 374.993 181.544 373.928 C 181.906 373.343, 182.444 370.198, 182.739 366.939 L 183.277 361.013 181.580 356.571 L 179.884 352.129 177.192 348.798 C 175.711 346.965, 172.137 343.275, 169.250 340.596 L 164 335.726 164 344.182 M 581.581 342.744 L 574.662 349.500 572.203 354.868 L 569.745 360.236 570.265 366.710 L 570.785 373.185 571.713 374.113 L 572.642 375.042 576.817 372.017 L 580.993 368.993 583.941 364.923 L 586.890 360.852 588.020 355.676 L 589.151 350.500 588.825 343.244 L 588.500 335.987 581.581 342.744 M 178 346.592 C 178 346.918, 178.908 348.339, 180.018 349.750 L 182.036 352.315 183.574 357.605 L 185.111 362.895 184.452 368.722 L 183.793 374.549 190.463 381.524 L 197.133 388.500 196.522 383.500 C 196.186 380.750, 195.467 374.701, 194.923 370.059 L 193.935 361.617 190.974 357.146 C 189.345 354.687, 187.469 351.173, 186.805 349.338 L 185.598 346 181.799 346 L 178 346 178 346.592 M 203.084 350.544 C 201.978 353.043, 200.103 356.450, 198.918 358.116 L 196.762 361.143 198.518 372.761 C 199.484 379.151, 200.574 385.500, 200.941 386.870 L 201.607 389.361 203.837 386.229 C 205.064 384.506, 207.119 380.713, 208.404 377.798 L 210.741 372.500 209.803 370 C 209.288 368.625, 208.481 365.475, 208.011 363 L 207.156 358.500 208.007 354 C 208.475 351.525, 209.163 348.712, 209.536 347.750 L 210.214 346 207.654 346 L 205.094 346 203.084 350.544 M 228.589 350.257 L 227.950 354.514 225.632 359.507 L 223.314 364.500 219.269 368.146 L 215.223 371.793 213.993 375.646 C 212.378 380.702, 207.592 389.154, 205.032 391.471 L 203 393.310 203 394.837 C 203 395.677, 203.968 399.951, 205.151 404.336 L 207.302 412.307 208.638 410.480 L 209.974 408.653 209.906 399.904 L 209.838 391.155 211.806 386.705 L 213.775 382.255 217.481 378.153 C 219.519 375.897, 224.248 371.781, 227.990 369.007 L 234.794 363.963 236.477 361.395 L 238.160 358.826 238.696 359.362 L 239.231 359.898 238.053 363.199 C 237.406 365.015, 236.244 370.635, 235.471 375.690 L 234.067 384.879 231.809 389.690 L 229.551 394.500 225.333 398.605 L 221.115 402.710 218.145 403.940 L 215.174 405.171 214.536 407.714 C 214.185 409.113, 212.825 411.836, 211.514 413.765 L 209.130 417.273 211.171 422.886 C 212.294 425.974, 215.420 433.182, 218.118 438.904 L 223.025 449.309 223.631 448.702 L 224.238 448.096 222.980 438.227 L 221.722 428.358 222.188 420.312 L 222.654 412.266 225.329 407.701 L 228.004 403.136 234.139 397.818 C 237.514 394.893, 242.919 390.063, 246.151 387.084 L 252.028 381.669 250.515 385.957 C 249.683 388.316, 248.387 394.353, 247.635 399.373 L 246.267 408.500 244.052 413.190 L 241.837 417.879 237.110 422.190 C 234.510 424.560, 230.901 427.293, 229.089 428.262 L 225.795 430.024 226.398 431.595 C 226.730 432.460, 227.286 436.871, 227.634 441.400 L 228.267 449.633 227.047 451.912 L 225.827 454.191 231.582 462.839 L 237.337 471.488 237.725 470.325 C 237.938 469.686, 236.912 463.198, 235.444 455.908 L 232.776 442.653 233.396 438.125 L 234.017 433.596 236.044 429.409 L 238.071 425.222 244.513 417.672 C 248.057 413.519, 251.824 408.693, 252.886 406.946 L 254.817 403.772 254.659 419.636 L 254.500 435.500 251.694 441.214 L 248.888 446.929 244.307 450.961 L 239.725 454.994 240.995 460.974 L 242.264 466.955 241.650 471.727 L 241.037 476.500 249.070 485.750 C 253.488 490.837, 257.515 495, 258.019 495 L 258.936 495 258.218 493.227 C 257.823 492.252, 256.077 488.989, 254.337 485.977 L 251.173 480.500 249.464 474.572 L 247.755 468.644 248.266 462.999 L 248.778 457.355 250.994 452.928 C 252.212 450.492, 255.203 445.930, 257.641 442.788 C 260.078 439.647, 263.113 435.244, 264.386 433.004 L 266.699 428.931 267.547 438.215 C 268.013 443.322, 268.376 450.875, 268.353 455 L 268.313 462.500 266.053 467.236 L 263.793 471.972 259.867 475.898 L 255.941 479.824 259.549 486.388 L 263.157 492.952 262.852 496.500 L 262.546 500.048 270.523 507 C 274.910 510.823, 278.825 513.963, 279.223 513.976 C 279.621 513.989, 277.224 508.488, 273.896 501.750 L 267.846 489.500 268.174 481.895 L 268.502 474.289 274.263 462.895 L 280.024 451.500 280.012 449.691 L 280 447.882 281 448.500 L 282 449.118 282.013 452.309 L 282.026 455.500 284.513 463.288 L 287 471.076 286.978 478.288 L 286.956 485.500 284.981 489.852 C 283.895 492.245, 281.887 495.534, 280.519 497.160 L 278.030 500.117 281.015 506.030 L 284 511.943 284 515.253 L 284 518.563 291.500 524.336 L 299 530.109 299 528.423 L 299 526.737 294.055 518.097 L 289.111 509.456 288.026 504.614 L 286.941 499.773 287.980 494.136 L 289.020 488.500 292.632 481 C 294.618 476.875, 296.804 471.475, 297.489 469 L 298.734 464.500 299.409 467.500 C 299.781 469.150, 301.641 475.281, 303.543 481.124 L 307 491.747 307 496.215 L 307 500.682 305.584 505.386 L 304.169 510.090 301.457 513.645 L 298.745 517.200 300.977 521.669 L 303.209 526.137 303.714 529.906 L 304.220 533.676 310.965 537.838 C 320.665 543.824, 320.921 543.466, 315.484 531.534 C 313.550 527.291, 311.508 521.765, 310.945 519.255 L 309.922 514.691 311.045 509.096 L 312.167 503.500 315.671 496.315 C 317.598 492.363, 319.750 486.963, 320.454 484.315 L 321.734 479.500 322.373 482.500 C 322.725 484.150, 324.387 489.612, 326.067 494.637 L 329.121 503.774 329.682 509.212 L 330.244 514.650 328.648 520.139 L 327.052 525.628 324.142 529.645 L 321.232 533.663 322.169 535.338 C 322.685 536.259, 323.431 538.914, 323.828 541.238 L 324.549 545.464 331.455 548.335 C 335.253 549.914, 342.474 552.250, 347.502 553.526 L 356.644 555.845 366.659 557.009 L 376.674 558.173 386.587 556.990 L 396.500 555.807 405.522 553.519 C 410.484 552.261, 417.678 549.904, 421.508 548.281 L 428.473 545.331 429.184 541.172 C 429.574 538.884, 430.302 536.283, 430.801 535.391 L 431.709 533.769 428.374 528.812 L 425.038 523.856 423.905 519.678 L 422.772 515.500 423.327 509.478 L 423.882 503.456 426.941 495.160 L 430 486.864 430 483.932 L 430 481 430.875 481 L 431.750 481 432.385 484.174 C 432.734 485.919, 434.421 490.307, 436.135 493.924 C 437.848 497.541, 439.869 502.244, 440.625 504.376 L 442 508.251 441.976 514.876 L 441.952 521.500 437.545 531.500 L 433.139 541.500 433.971 541.801 C 434.430 541.966, 437.998 540.188, 441.902 537.850 L 449 533.599 449 530.496 L 449 527.393 451.556 522.264 L 454.111 517.136 451.151 513.050 L 448.191 508.963 446.970 503.875 L 445.750 498.788 446.360 493.598 L 446.970 488.408 449.985 479.706 L 453 471.004 453 468.561 L 453 466.118 453.890 465.568 L 454.781 465.018 455.435 468.506 L 456.090 471.995 460.035 480.247 L 463.981 488.500 464.965 493.750 L 465.948 499 464.978 504.114 L 464.009 509.227 459.004 517.898 L 454 526.569 454 528.339 L 454 530.109 461.500 524.336 L 469 518.563 469 515.253 L 469 511.943 471.985 506.030 L 474.970 500.117 472.481 497.160 C 471.113 495.534, 469.105 492.245, 468.019 489.852 L 466.044 485.500 466.022 478.355 L 466 471.211 468.129 464.355 C 469.300 460.585, 470.576 455.250, 470.965 452.500 L 471.673 447.500 472.429 449.500 C 472.845 450.600, 475.731 456.628, 478.842 462.895 L 484.498 474.289 484.826 481.895 L 485.154 489.500 479.104 501.750 C 472.031 516.070, 472.067 516.124, 482.470 506.926 L 490.439 499.880 490.141 496.416 L 489.843 492.952 493.409 486.464 L 496.976 479.976 493.161 476.161 L 489.346 472.346 486.941 467.423 L 484.536 462.500 484.548 455 C 484.555 450.875, 484.956 443.277, 485.439 438.116 L 486.319 428.731 488.310 432.616 C 489.405 434.752, 492.294 438.947, 494.729 441.938 C 497.164 444.929, 500.307 449.645, 501.712 452.418 L 504.267 457.461 504.740 463.481 L 505.213 469.500 503.069 475.829 C 501.890 479.309, 499.798 483.944, 498.420 486.127 C 497.041 488.311, 495.494 491.200, 494.982 492.549 L 494.050 495 494.924 495 C 495.405 495, 499.435 490.837, 503.880 485.750 L 511.961 476.500 511.348 471.727 L 510.736 466.955 512.005 460.974 L 513.275 454.994 508.590 450.870 L 503.905 446.747 501.227 441.623 L 498.549 436.500 498.388 420.172 L 498.227 403.844 500.250 407.172 C 501.362 409.002, 504.616 413.200, 507.479 416.500 C 510.343 419.800, 513.869 424.272, 515.314 426.439 L 517.941 430.378 519.143 435.746 L 520.344 441.115 519.115 447.808 C 518.439 451.488, 517.197 457.502, 516.355 461.171 L 514.823 467.843 515.216 469.671 L 515.608 471.500 521.352 462.773 L 527.095 454.047 526.048 452.089 L 525 450.131 525.060 444.816 C 525.092 441.892, 525.478 437.317, 525.917 434.648 L 526.714 429.797 523.607 427.967 C 511.371 420.763, 507.196 414.039, 505 398 C 504.395 393.583, 503.249 388.064, 502.452 385.735 L 501.004 381.500 504.366 385.087 C 506.215 387.060, 510.395 390.726, 513.655 393.235 C 520.595 398.575, 526.189 404.543, 528.612 409.190 L 530.338 412.500 530.807 420.425 L 531.277 428.350 529.976 438.179 L 528.675 448.009 529.332 448.665 L 529.988 449.321 534.862 438.911 C 537.543 433.185, 540.670 425.965, 541.811 422.866 L 543.885 417.233 541.495 413.993 L 539.105 410.753 538.494 407.974 L 537.884 405.195 534.884 403.952 L 531.885 402.710 527.667 398.605 L 523.449 394.500 521.191 389.690 L 518.933 384.879 517.529 375.690 C 516.756 370.635, 515.594 365.015, 514.947 363.199 C 513.379 358.805, 514.284 358.186, 516.902 361.863 L 519.023 364.841 525.312 369.329 C 528.772 371.797, 533.317 375.716, 535.414 378.036 L 539.225 382.255 541.194 386.705 L 543.162 391.155 543.094 399.904 L 543.026 408.653 544.327 410.433 L 545.628 412.212 547.814 404.236 C 550.556 394.229, 550.681 395.352, 546.164 389.341 L 542.328 384.236 540.015 378.368 L 537.701 372.500 533.454 368 L 529.207 363.500 527.199 359.477 L 525.190 355.453 524.482 350.727 L 523.773 346 376.500 346 L 229.227 346 228.589 350.257 M 543.553 347.750 C 543.975 348.712, 544.521 352.745, 544.767 356.711 L 545.215 363.922 543.701 368.365 L 542.186 372.809 544.588 377.993 C 545.909 380.845, 547.990 384.582, 549.212 386.298 L 551.435 389.419 552.181 385.960 C 552.592 384.057, 553.654 377.668, 554.541 371.762 L 556.154 361.025 554.040 358.056 C 552.878 356.424, 551.022 353.043, 549.916 350.544 L 547.906 346 545.346 346 L 542.786 346 543.553 347.750 M 565.538 350.539 C 564.585 353.036, 562.780 356.299, 561.528 357.789 L 559.251 360.500 557.555 373.846 C 555.510 389.938, 555.313 389.648, 562.767 381.513 L 568.785 374.945 568.678 366.223 L 568.572 357.500 570.771 353.318 C 571.981 351.018, 573.428 348.854, 573.986 348.509 C 574.544 348.164, 575 347.459, 575 346.941 L 575 346 571.136 346 L 567.272 346 565.538 350.539 M 227.290 371.551 L 220.121 376.975 217.678 380.238 C 213.983 385.173, 212.266 389.045, 211.497 394.171 L 210.801 398.816 211.476 401.890 L 212.151 404.964 216.325 402.877 L 220.500 400.791 224.760 396.678 L 229.019 392.565 230.904 387.527 L 232.789 382.489 233.976 374.659 C 235.454 364.907, 235.836 365.084, 227.290 371.551 M 518.485 371.680 C 518.840 374.881, 520.025 380.573, 521.119 384.330 L 523.106 391.160 527.263 395.669 L 531.420 400.179 536.135 402.568 L 540.850 404.958 541.525 401.887 L 542.199 398.816 541.504 394.181 L 540.810 389.547 538.953 385.907 C 536.110 380.335, 532.549 376.560, 524.864 370.970 L 517.839 365.860 518.485 371.680 M 158 378.528 C 158 378.819, 159.553 382.307, 161.450 386.278 L 164.900 393.500 167.970 397.186 L 171.041 400.873 176.270 403.348 C 179.147 404.709, 183.250 406.120, 185.389 406.483 L 189.278 407.143 188.613 402.980 L 187.947 398.816 186.008 395.016 L 184.069 391.215 179.861 387.613 L 175.654 384.012 167.859 381.006 C 160.165 378.039, 158 377.495, 158 378.528 M 584.921 381.046 L 577.341 384.016 573.035 387.702 L 568.728 391.389 566.374 396.444 L 564.020 401.500 564.010 404.295 L 564 407.091 567.750 406.457 C 569.813 406.108, 573.853 404.709, 576.730 403.348 L 581.959 400.873 585.030 397.186 L 588.100 393.500 591.550 386.278 C 596.306 376.323, 596.527 376.498, 584.921 381.046 M 239.899 394.883 C 236.380 397.569, 232.287 401.056, 230.804 402.633 L 228.107 405.500 225.948 410.384 L 223.788 415.268 223.733 421.139 C 223.702 424.369, 223.930 427.264, 224.239 427.573 L 224.801 428.134 229.788 425.607 L 234.776 423.080 238.412 418.832 L 242.048 414.584 243.905 408.542 C 245.710 402.672, 247.652 390, 246.747 390 C 246.500 390, 243.419 392.197, 239.899 394.883 M 506.395 396.101 C 506.773 399.620, 507.743 404.833, 508.550 407.684 L 510.017 412.867 513.290 417.158 L 516.563 421.449 520.531 424.146 C 522.714 425.629, 525.513 427.133, 526.750 427.489 L 529 428.135 528.978 421.317 L 528.956 414.500 527.133 410.500 C 524.220 404.111, 515.694 395.609, 507.104 390.527 L 505.708 389.701 506.395 396.101 M 245.500 418.999 L 239.500 425.946 237.263 430.723 L 235.026 435.500 235.013 441.101 L 235 446.702 236.098 449.851 L 237.196 453 238.204 453 C 238.758 453, 240.938 451.633, 243.046 449.963 L 246.881 446.926 249.940 440.804 L 253 434.681 253 423.340 L 253 412 252.250 412.026 C 251.838 412.040, 248.800 415.178, 245.500 418.999 M 500.166 424.139 L 500.500 436.500 502.479 440.500 L 504.458 444.500 508.703 448.750 L 512.947 453 514.396 453 L 515.845 453 517.048 449.355 L 518.251 445.711 517.744 439.395 L 517.237 433.080 514.516 428.438 C 511.855 423.897, 502.517 412.855, 500.733 412.139 L 499.832 411.777 500.166 424.139 M 163 415.379 C 163 416.621, 170.447 428.440, 173.220 431.598 L 176.274 435.076 180.637 437.633 L 184.999 440.190 191 440.734 L 197 441.278 197 439.607 C 197 438.688, 196.303 436.263, 195.451 434.218 L 193.902 430.500 190.201 426.665 L 186.500 422.831 182.940 420.992 C 180.982 419.981, 176.482 418.420, 172.940 417.524 C 169.398 416.628, 165.713 415.663, 164.750 415.380 L 163 414.865 163 415.379 M 580.500 417.379 C 570.906 420.054, 567.274 421.880, 562.955 426.199 L 559.698 429.456 557.871 433.478 C 556.866 435.690, 556.034 438.350, 556.022 439.389 L 556 441.278 562 440.734 L 568.001 440.190 572.250 437.684 C 577.756 434.438, 580.856 431.041, 585.895 422.732 C 591.412 413.637, 591.962 414.184, 580.500 417.379 M 259 443.539 L 253.500 450.901 251.804 455.200 L 250.109 459.500 250.054 465.782 L 250 472.064 251.449 475.532 L 252.898 479 253.856 479 C 254.383 479, 256.850 476.737, 259.337 473.970 L 263.859 468.940 265.569 463.793 L 267.278 458.646 266.679 449.517 C 266.349 444.496, 265.724 439.440, 265.290 438.282 L 264.500 436.177 259 443.539 M 487.343 439.500 L 486.500 442.500 486.500 453 L 486.500 463.500 488.359 467 C 493.418 476.526, 499.494 480.456, 501.551 475.532 L 503 472.064 503 466.181 L 503 460.298 501.847 456.899 C 500.554 453.088, 495.611 445.283, 491.144 440 L 488.185 436.500 487.343 439.500 M 172.938 454.913 C 174.078 456.515, 177.241 459.830, 179.967 462.280 L 184.921 466.735 188.711 468.582 L 192.500 470.428 200.340 470.824 L 208.180 471.220 209.092 470.308 L 210.003 469.397 207.055 464.748 L 204.107 460.099 200.057 457.419 L 196.007 454.739 190.254 453.385 L 184.500 452.031 177.682 452.016 L 170.864 452 172.938 454.913 M 563.045 453.092 L 558.590 453.966 554.045 456.762 L 549.500 459.558 546.215 464.444 L 542.930 469.330 543.817 470.217 L 544.703 471.103 550.842 471.132 L 556.980 471.162 560.740 469.936 C 567.175 467.839, 572.945 463.243, 580.436 454.250 L 582.310 452 574.905 452.110 C 570.832 452.170, 565.495 452.612, 563.045 453.092 M 277.754 460 C 276.300 462.475, 273.872 467.200, 272.358 470.500 L 269.605 476.500 269.624 483 L 269.643 489.500 272.393 494.857 L 275.143 500.215 277.670 497.857 L 280.198 495.500 282.794 490.500 L 285.391 485.500 285.346 478 L 285.301 470.500 282.849 463 L 280.397 455.500 277.754 460 M 469.961 463.635 L 467.562 471.500 467.563 478.500 L 467.563 485.500 470.183 490.500 L 472.802 495.500 475.384 497.908 L 477.966 500.316 480.708 494.408 L 483.451 488.500 483.403 482.278 L 483.355 476.057 479.239 467.778 C 476.974 463.225, 474.500 458.661, 473.741 457.635 L 472.359 455.771 469.961 463.635 M 293.936 482.207 L 289.500 491.500 289.500 499 L 289.500 506.500 292.409 511.750 C 296.199 518.590, 299.055 517.293, 303.469 506.728 L 305 503.064 305 496.958 L 305 490.853 302.443 483.236 C 301.037 479.047, 299.546 475.011, 299.129 474.267 L 298.372 472.914 293.936 482.207 M 451.563 480.045 L 448.742 487.500 448.244 495.230 L 447.745 502.959 450.369 508.321 L 452.992 513.683 455.012 515.511 L 457.032 517.339 458.494 515.419 C 459.298 514.364, 460.911 511.025, 462.077 508 L 464.198 502.500 463.599 496.500 L 462.999 490.500 458.691 481.545 L 454.384 472.590 451.563 480.045 M 197.172 480.740 L 191.843 481.110 196.554 485.305 C 199.145 487.612, 203.092 490.750, 205.325 492.278 L 209.384 495.056 214.798 496.630 L 220.213 498.204 225.365 497.560 C 228.199 497.206, 231.158 496.520, 231.941 496.036 L 233.365 495.156 230.932 491.562 L 228.500 487.968 224.726 485.331 L 220.952 482.694 215.758 481.347 L 210.564 480 206.532 480.185 C 204.314 480.287, 200.102 480.536, 197.172 480.740 M 536.810 481.398 L 532.119 482.661 528.543 485.080 L 524.968 487.500 522.296 491.325 L 519.624 495.150 521.054 496.033 C 521.840 496.519, 524.801 497.206, 527.635 497.560 L 532.787 498.204 538.144 496.623 L 543.500 495.042 547.594 492.271 C 549.845 490.747, 553.772 487.653, 556.320 485.395 L 560.953 481.289 553.325 480.645 C 543.593 479.822, 542.473 479.873, 536.810 481.398 M 317.712 495.744 C 315.726 500.010, 313.571 505.657, 312.921 508.294 L 311.740 513.089 312.350 517.538 L 312.960 521.988 315.497 526.994 L 318.034 532 319.157 532 C 320.711 532, 322.683 529.376, 325.545 523.500 L 327.980 518.500 327.971 512 L 327.961 505.500 324.999 497.102 C 323.371 492.484, 321.877 488.543, 321.680 488.346 C 321.482 488.149, 319.697 491.478, 317.712 495.744 M 428.573 495.145 L 425.779 502.500 425.275 510.008 L 424.771 517.516 426.432 521.508 C 427.345 523.704, 429.252 527.180, 430.670 529.232 L 433.248 532.965 434.143 532.412 C 434.635 532.107, 436.180 529.605, 437.575 526.851 L 440.113 521.844 440.676 517.089 L 441.239 512.334 439.535 506.472 C 438.597 503.247, 436.376 497.725, 434.599 494.199 L 431.368 487.789 428.573 495.145 M 218.095 506.315 L 211.690 507.500 217.770 511.761 C 221.114 514.105, 226.246 517.138, 229.175 518.501 L 234.500 520.980 240 520.985 L 245.500 520.989 249.214 519.957 C 251.256 519.390, 253.220 518.454, 253.576 517.877 L 254.225 516.827 250.862 513.326 L 247.500 509.825 243.500 507.747 L 239.500 505.669 232 505.399 L 224.500 505.129 218.095 506.315 M 513.994 505.934 C 509.516 507.296, 505.568 509.758, 502.138 513.328 L 498.775 516.827 499.424 517.877 C 499.780 518.454, 501.744 519.390, 503.786 519.957 L 507.500 520.989 513 520.985 L 518.500 520.980 523.825 518.501 C 526.754 517.138, 531.880 514.107, 535.218 511.766 L 541.285 507.510 534.393 506.317 C 526.601 504.967, 517.720 504.801, 513.994 505.934 M 240.500 526.428 C 237.200 527.179, 232.998 528.186, 231.162 528.668 L 227.825 529.543 235.434 533.897 C 239.620 536.292, 244.721 538.850, 246.772 539.581 L 250.500 540.912 255.572 540.956 L 260.644 541 265.321 539.406 C 267.893 538.530, 270.270 537.372, 270.604 536.832 L 271.210 535.852 268.910 533.404 L 266.611 530.957 261.555 528.518 L 256.500 526.079 251.500 525.571 L 246.500 525.064 240.500 526.428 M 497.897 525.892 L 494.295 526.637 489.896 529.215 C 487.477 530.633, 484.604 532.780, 483.512 533.987 L 481.527 536.181 483.467 537.600 C 484.534 538.380, 487.003 539.462, 488.954 540.004 L 492.500 540.989 497.500 540.951 L 502.500 540.912 506.228 539.581 C 508.279 538.850, 513.380 536.292, 517.564 533.898 L 525.172 529.545 518.336 527.816 C 514.576 526.866, 509.250 525.876, 506.500 525.618 L 501.500 525.147 497.897 525.892 M 126.391 544.750 C 127.681 561.450, 129.144 587.189, 128.821 587.512 C 128.634 587.699, 114.770 584.538, 98.013 580.487 C 81.256 576.436, 67.418 573.249, 67.262 573.405 C 65.406 575.260, 122.398 635.076, 145.740 655.769 L 152.746 661.981 159.054 654.241 C 162.523 649.983, 165.754 645.975, 166.233 645.334 L 167.105 644.168 158.053 635.442 C 147.133 624.915, 146.604 628.418, 161.885 610.099 L 174.733 594.698 163.275 581.658 C 156.973 574.486, 146.193 561.504, 139.318 552.809 C 132.444 544.114, 126.588 537, 126.306 537 L 125.792 537 126.391 544.750 M 617.368 548.193 C 606.487 562.094, 595.014 575.856, 585.210 586.766 L 577.782 595.033 579.135 596.766 C 579.879 597.720, 585.778 604.426, 592.244 611.668 C 606.255 627.363, 605.923 624.576, 595 634.768 C 584.241 644.808, 584.429 642.886, 593.167 653.425 L 600.333 662.069 603.417 659.231 C 636.231 629.026, 687.697 575.364, 685.734 573.401 C 685.581 573.247, 671.740 576.426, 654.977 580.464 C 638.215 584.502, 624.361 587.673, 624.191 587.511 C 624.022 587.349, 624.572 576.056, 625.415 562.415 C 626.258 548.775, 626.784 537.450, 626.583 537.250 C 626.383 537.050, 622.236 541.974, 617.368 548.193 M 266.500 545.010 C 262.650 546.055, 258.150 547.309, 256.500 547.795 L 253.500 548.680 260.783 552.369 L 268.066 556.058 274.104 557.605 L 280.141 559.152 284.321 558.476 C 286.619 558.105, 290.413 556.971, 292.750 555.957 L 297 554.112 297 553.129 C 297 552.588, 295.313 550.750, 293.250 549.044 L 289.500 545.943 284.568 544.471 L 279.637 543 276.568 543.055 C 274.881 543.085, 270.350 543.965, 266.500 545.010 M 468 544.477 L 463.500 545.934 459.750 549.040 C 457.688 550.748, 456 552.588, 456 553.129 L 456 554.112 460.750 556.240 L 465.500 558.368 472 558.336 L 478.500 558.305 483.745 556.250 C 486.630 555.120, 491.130 552.938, 493.745 551.399 L 498.500 548.603 491.069 546.267 L 483.637 543.931 478.069 543.476 L 472.500 543.020 468 544.477 M 176.628 602.435 L 157.072 625.870 164.786 633.102 C 200.195 666.299, 246.268 693.209, 291.497 707.111 L 304.494 711.106 318.997 713.993 C 326.974 715.582, 338 717.446, 343.500 718.138 L 353.500 719.394 376 719.394 L 398.500 719.394 408.500 718.138 C 414 717.446, 425.025 715.578, 433 713.986 L 447.500 711.091 459.500 707.453 C 505.857 693.396, 553.450 665.470, 589.308 631.284 L 595.117 625.747 594.652 624.623 C 593.959 622.948, 556.092 580.556, 554.931 580.155 L 553.932 579.811 546.711 586.655 C 535.619 597.170, 524.932 605.565, 509.549 615.848 L 495.500 625.240 479.500 633.094 L 463.500 640.947 448.500 645.930 L 433.500 650.913 421 653.412 C 414.125 654.787, 403.840 656.381, 398.144 656.956 L 387.788 658 375.355 658 L 362.921 658 353.211 656.945 C 347.870 656.366, 337.875 654.771, 331 653.402 L 318.500 650.913 303.500 645.939 L 288.500 640.964 272.500 633.061 L 256.500 625.158 244.326 617.099 C 230.145 607.711, 214.984 595.829, 204.603 585.968 C 200.568 582.135, 197.024 579, 196.726 579 C 196.428 579, 187.384 589.546, 176.628 602.435 M 530.110 615.894 L 526.720 618.677 527.610 620.154 C 529.749 623.703, 546.155 645.978, 547.025 646.516 L 547.988 647.111 551.426 644.488 L 554.865 641.866 545.324 628.683 C 540.077 621.432, 535.270 614.962, 534.642 614.305 L 533.500 613.111 530.110 615.894 M 214.329 617.458 L 211.157 618.837 210.079 620.853 L 209 622.869 209 626.271 L 209 629.674 213.067 635.354 L 217.135 641.034 216.817 643.267 L 216.500 645.500 214.441 645.794 L 212.383 646.089 209.691 643.972 L 207 641.855 207 638.941 L 207 636.027 203.378 634.513 C 198.512 632.480, 198.682 632.336, 199.231 638.057 L 199.717 643.113 203.017 646.518 L 206.317 649.923 209.560 651.461 L 212.802 653 216.978 653 L 221.154 653 224.077 650.077 L 227 647.154 227 644.511 C 227 641.420, 226.031 639.360, 221.258 632.305 L 217.744 627.110 218.340 625.555 L 218.937 624 221.412 624 L 223.887 624 225.443 626.223 C 226.299 627.445, 227 629.201, 227 630.125 L 227 631.804 230.149 632.902 C 231.881 633.506, 233.681 634, 234.149 634 L 235 634 235 631.450 L 235 628.901 233.595 626.200 C 229.608 618.537, 220.916 614.593, 214.329 617.458 M 510.080 629.839 C 504.349 633.514, 499.505 636.985, 499.316 637.551 L 498.973 638.581 500.416 640.540 L 501.859 642.500 505.457 640.578 L 509.055 638.655 509.867 639.578 C 510.314 640.085, 513.736 645.450, 517.473 651.500 C 521.209 657.550, 524.388 662.645, 524.538 662.822 C 524.974 663.338, 531.974 658.576, 531.988 657.754 C 531.994 657.343, 528.850 651.959, 525 645.789 C 521.150 639.619, 518 634.023, 518 633.353 L 518 632.135 519.910 631.529 C 520.960 631.195, 522.378 630.250, 523.060 629.427 L 524.301 627.932 522.982 625.466 C 521.313 622.347, 522.271 622.022, 510.080 629.839 M 239.240 644.858 L 233 656.716 233 660.662 L 233 664.608 236.250 667.692 C 238.037 669.388, 241.056 671.562, 242.959 672.522 L 246.418 674.267 250.036 674.362 L 253.654 674.457 256.101 672.853 L 258.548 671.250 264.774 659.604 C 272.055 645.983, 271.853 646.993, 267.771 644.669 L 264.554 642.837 264.258 643.669 C 264.096 644.126, 261.266 649.534, 257.970 655.686 L 251.977 666.872 250.104 667.467 L 248.230 668.062 245.591 666.859 L 242.952 665.657 242.301 663.079 L 241.650 660.500 247.767 648.902 L 253.885 637.304 250.056 635.152 C 247.951 633.968, 246.059 633, 245.854 633 C 245.648 633, 242.672 638.336, 239.240 644.858 M 489.500 641.672 C 487.850 642.548, 486.378 643.364, 486.229 643.486 C 486.015 643.662, 483.165 658.899, 482.952 661 C 482.924 661.275, 481.340 658.458, 479.432 654.739 L 475.962 647.979 471.981 650.010 C 469.791 651.127, 468 652.262, 468 652.533 C 468 653.028, 482.974 683.223, 483.516 683.820 C 483.676 683.996, 485.652 683.198, 487.908 682.047 L 492.010 679.954 489.505 675.010 C 486.908 669.885, 486.473 667.377, 487.815 665.265 L 488.600 664.029 495.359 669.640 L 502.119 675.250 506.059 673.473 C 511.351 671.087, 511.350 671.086, 500.534 663.308 L 491.067 656.500 491.046 654.500 C 491.034 653.400, 491.688 650.025, 492.500 647 C 494.656 638.969, 494.641 638.944, 489.500 641.672 M 280.686 655.868 L 277.872 657.724 275.599 661.112 C 272.677 665.467, 271 670.414, 271 674.681 L 271 678.064 272.387 681.383 L 273.774 684.703 277.137 687.101 L 280.500 689.500 286.713 689.500 L 292.926 689.500 293.213 691.490 L 293.500 693.480 295.064 693.777 L 296.628 694.075 299.564 685.831 C 301.179 681.297, 302.625 677.305, 302.778 676.960 L 303.056 676.332 296.073 673.954 C 288.563 671.398, 288.588 671.395, 287.565 674.723 L 286.882 676.946 289.969 678.223 L 293.056 679.500 291.472 681.750 L 289.887 684 287.378 684 C 285.998 684, 284.050 683.562, 283.049 683.026 L 281.230 682.053 280.563 679.395 L 279.896 676.738 281.536 671.526 L 283.175 666.313 285.393 663.531 L 287.611 660.750 290.495 660.750 L 293.379 660.750 295.190 662.986 L 297 665.222 297 667.494 L 297 669.767 299.250 670.370 C 300.488 670.701, 302.346 670.979, 303.380 670.986 L 305.260 671 304.748 666.459 L 304.237 661.919 302.368 659.818 C 301.341 658.663, 298.700 656.891, 296.500 655.881 L 292.500 654.044 288 654.029 L 283.500 654.013 280.686 655.868 M 455.750 656.162 L 453 657.167 453.003 658.333 C 453.005 658.975, 454.580 664.621, 456.503 670.879 C 460.566 684.099, 460.574 684.171, 458.171 686.345 L 456.343 688 453.197 688 L 450.051 688 448.650 685.250 C 447.879 683.737, 445.765 677.644, 443.953 671.709 L 440.657 660.918 439.079 661.529 C 438.210 661.865, 436.262 662.390, 434.750 662.695 C 433.238 663, 432 663.586, 432 663.996 C 432 665.746, 438.830 686.780, 440.353 689.720 L 442.021 692.941 444.154 694.082 L 446.287 695.224 451.484 694.793 L 456.680 694.362 460.590 692.368 L 464.500 690.374 466.206 686.937 L 467.912 683.500 466.901 679 C 466.345 676.525, 464.530 670.112, 462.867 664.750 L 459.845 655 459.172 655.079 C 458.803 655.122, 457.262 655.610, 455.750 656.162 M 313.122 678.644 C 311.327 687.365, 309.779 695.148, 309.680 695.941 L 309.500 697.381 313.331 698.309 L 317.163 699.237 317.983 698.369 C 318.435 697.891, 320.295 690.210, 322.118 681.299 L 325.432 665.098 324.798 664.465 C 324.450 664.117, 322.414 663.597, 320.274 663.310 L 316.384 662.788 313.122 678.644 M 414.799 666.726 L 411.098 667.115 410.635 668.807 C 410.380 669.738, 409.363 674.657, 408.374 679.738 L 406.576 688.976 405.868 688.238 C 405.479 687.832, 403.480 683.282, 401.426 678.128 L 397.692 668.755 391.129 669.428 C 387.520 669.798, 384.435 670.232, 384.274 670.392 C 383.942 670.724, 386.866 700.323, 387.566 703.723 L 388.024 705.945 391.262 705.329 C 393.043 704.990, 394.653 704.587, 394.839 704.434 C 395.240 704.104, 393.177 682.630, 392.396 679 L 391.858 676.500 392.803 677.500 C 393.322 678.050, 395.907 684.237, 398.547 691.250 L 403.348 704 406.051 704 L 408.755 704 409.749 702.750 L 410.742 701.500 413.096 688.250 L 415.450 675 416.081 675 L 416.712 675 417.389 683.250 C 417.761 687.788, 418.337 693.862, 418.670 696.750 L 419.275 702 423.638 702 L 428 702 428.002 701.250 C 428.005 699.349, 424.865 670.245, 424.440 668.250 L 423.962 666 421.231 666.168 C 419.729 666.261, 416.835 666.511, 414.799 666.726 M 334.970 668.625 C 334.954 669.656, 334.292 677.025, 333.500 685 C 332.708 692.975, 332.046 700.242, 332.030 701.149 L 332 702.799 336.448 703.152 L 340.896 703.506 341.434 701.503 C 341.730 700.401, 341.979 697.389, 341.986 694.809 L 342 690.118 343.071 689.456 L 344.142 688.794 348.681 689.475 L 353.220 690.156 352.525 697.578 L 351.829 705 356.396 705 L 360.962 705 361.445 702.750 C 361.711 701.513, 362.455 693.814, 363.099 685.642 L 364.269 670.784 362.885 669.908 L 361.500 669.031 358.311 669.015 L 355.121 669 354.427 676.048 L 353.732 683.095 348.616 682.798 L 343.500 682.500 343.853 675.250 L 344.207 668 342.728 668 C 341.915 668, 339.844 667.719, 338.125 667.375 L 335 666.750 334.970 668.625" stroke="none" fill="#090b06" fill-rule="evenodd"/><path d="M 105.001 354.250 C 105.013 471.614, 190.328 596.706, 298 637.230 L 308.500 641.182 321.550 644.529 L 334.600 647.875 346.550 649.541 L 358.500 651.206 376 651.214 L 393.500 651.223 405.500 649.504 L 417.500 647.785 430.500 644.518 L 443.500 641.251 453.500 637.557 C 459 635.526, 469.952 630.682, 477.837 626.792 L 492.174 619.721 505.337 610.949 C 540.852 587.281, 569.469 557.915, 594.881 519.059 L 602.804 506.944 610.810 491.222 C 620.763 471.676, 625.603 460.064, 631.881 440.668 L 636.791 425.500 639.431 413.722 C 640.882 407.245, 642.944 395.742, 644.012 388.161 L 645.953 374.376 646.631 360.188 L 647.308 346 619.248 346 L 591.188 346 590.530 351.250 L 589.872 356.500 586.878 362.741 L 583.883 368.982 577.692 373.437 L 571.500 377.891 567.117 383.036 C 564.706 385.865, 560.887 389.518, 558.630 391.153 L 554.526 394.126 552.310 402.313 C 551.091 406.816, 550.072 411.070, 550.047 411.767 L 550 413.034 554.813 410.595 C 560.779 407.571, 561.378 406.827, 563.336 400 L 564.914 394.500 567.377 391.164 C 568.732 389.329, 571.656 386.492, 573.875 384.860 L 577.910 381.893 586.205 378.869 C 590.767 377.206, 595.962 374.944, 597.750 373.841 L 601 371.837 601 372.796 C 601 373.324, 600.383 374.267, 599.629 374.893 C 598.875 375.519, 595.949 380.712, 593.127 386.432 L 587.995 396.834 583.442 400.842 L 578.889 404.850 574.266 406.425 C 571.724 407.291, 569.017 408, 568.252 408 C 567.487 408, 564.979 409.278, 562.680 410.841 C 560.381 412.404, 556.025 414.812, 553 416.193 L 547.500 418.703 545.098 425.102 C 543.777 428.621, 540.961 435.284, 538.840 439.908 C 534.188 450.050, 533.698 449.553, 544 445.140 L 552.500 441.500 556 434.293 L 559.500 427.086 561.941 424.525 L 564.382 421.965 569.441 419.622 C 572.223 418.334, 577.592 416.523, 581.372 415.598 C 585.151 414.673, 589.971 413.035, 592.082 411.958 C 597.372 409.259, 597.670 409.473, 594.175 413.454 C 592.507 415.354, 589.346 419.966, 587.152 423.704 L 583.161 430.500 579.331 434.144 L 575.500 437.788 571.395 439.840 L 567.290 441.893 561.937 442.603 L 556.584 443.313 553.186 445.318 C 551.318 446.420, 545.674 449.001, 540.644 451.054 L 531.500 454.785 526.258 462.643 L 521.016 470.500 522.597 470.841 C 523.467 471.028, 527.975 470.642, 532.615 469.984 L 541.051 468.786 543.994 464.508 C 547.578 459.300, 552.034 455.444, 556.871 453.368 L 560.500 451.810 571.837 450.928 C 578.072 450.443, 584.680 449.630, 586.521 449.122 L 589.869 448.197 580.356 457.349 L 570.843 466.500 565.671 469.500 L 560.500 472.500 551 472.725 L 541.500 472.950 530.205 474.451 C 516.518 476.269, 517.703 475.626, 508.957 485.981 L 501.814 494.438 502.982 494.827 C 503.625 495.042, 507.066 494.905, 510.630 494.523 L 517.109 493.829 522.861 488.059 L 528.613 482.289 533.612 480.629 L 538.610 478.969 552.055 479.055 L 565.500 479.141 567.250 478.464 L 569 477.786 569 478.373 C 569 478.695, 567.313 479.848, 565.250 480.934 C 563.188 482.020, 558.584 485.414, 555.021 488.476 L 548.541 494.044 544.021 496.272 L 539.500 498.500 531 498.418 C 526.325 498.373, 521.375 498.205, 520 498.045 C 518.625 497.885, 512.864 498.250, 507.197 498.858 L 496.894 499.963 488.400 507.731 L 479.907 515.500 488.645 515.792 L 497.384 516.083 499.765 513.041 L 502.146 509.999 506.346 507.538 L 510.545 505.076 515.911 503.926 L 521.277 502.775 532.111 504.518 L 542.945 506.261 545.973 505.655 L 549 505.050 549 505.576 C 549 505.865, 547.447 506.751, 545.549 507.544 C 543.651 508.337, 538.490 511.442, 534.081 514.445 L 526.065 519.903 520.851 521.452 C 514.496 523.339, 511.060 523.390, 503.960 521.702 L 498.500 520.404 489 520.598 C 483.775 520.705, 478.126 520.839, 476.448 520.896 L 473.395 521 466.570 526.241 L 459.744 531.482 467.122 533.200 C 471.180 534.145, 475.884 534.936, 477.576 534.959 L 480.651 535 483.076 532.405 C 484.409 530.977, 487.460 528.657, 489.856 527.248 L 494.211 524.686 501.356 524.237 L 508.500 523.787 517.329 525.894 C 522.185 527.052, 527.585 528.007, 529.329 528.015 L 532.500 528.029 526 531.379 C 522.425 533.221, 516.476 536.331, 512.780 538.289 L 506.060 541.849 500.572 542.534 L 495.083 543.220 488.136 541.110 L 481.190 539 477.345 538.965 C 475.230 538.946, 470.575 538.286, 467 537.500 C 463.425 536.714, 458.925 536.064, 457 536.057 L 453.500 536.043 446.803 540.382 L 440.106 544.721 446.194 547.861 C 453.646 551.704, 452.983 551.715, 458.748 547.643 C 461.361 545.796, 465.030 543.771, 466.899 543.143 L 470.298 542 476.611 542 L 482.924 542 490.712 544.487 L 498.500 546.974 502.809 546.987 L 507.118 547 506.500 548 L 505.882 549 504.100 549 L 502.317 549 494.135 553.053 C 489.635 555.281, 484.107 557.756, 481.851 558.553 L 477.749 560 471.842 560 L 465.936 560 462.346 558.500 C 460.371 557.675, 458.052 557, 457.191 557 C 456.331 557, 451.159 554.911, 445.698 552.359 L 435.769 547.717 428.634 550.951 C 420.006 554.862, 410.063 558.548, 404.081 560.055 L 399.661 561.168 405.344 563.478 C 411.816 566.108, 414.304 567.595, 421.917 573.382 L 427.335 577.500 434.667 585.989 C 443.165 595.826, 442.882 594.925, 438.896 599.465 C 434.845 604.080, 435.698 604.446, 424.369 593.225 L 414.500 583.450 407.893 578.740 C 399.959 573.082, 390.659 568.617, 382.468 566.532 L 376.436 564.996 370.468 566.508 L 364.500 568.020 356.500 571.954 L 348.500 575.888 340.321 582.458 L 332.142 589.027 325.258 596.498 L 318.375 603.968 314.553 600.055 L 310.732 596.141 311.256 594.821 C 314.780 585.948, 338.422 566.051, 349.323 562.785 L 353.150 561.639 342.325 557.960 C 336.371 555.937, 328.290 552.805, 324.366 551 L 317.231 547.717 307.302 552.359 C 301.841 554.911, 296.669 557, 295.809 557 C 294.948 557, 292.505 557.727, 290.380 558.614 L 286.516 560.229 278.940 559.790 L 271.363 559.352 260.932 554.172 L 250.500 548.993 248.809 548.996 L 247.118 549 246.500 548 L 245.882 547 250.191 546.987 L 254.500 546.974 262.288 544.487 L 270.076 542 276.389 542 L 282.702 542 286.101 543.143 C 287.970 543.771, 291.639 545.796, 294.252 547.643 C 299.947 551.666, 298.423 551.633, 306.398 547.901 L 313.020 544.802 306.260 540.422 L 299.500 536.043 296 536.057 C 294.075 536.064, 289.575 536.714, 286 537.500 C 282.425 538.286, 277.700 538.951, 275.500 538.978 L 271.500 539.026 265 541.093 L 258.500 543.161 253.079 542.552 L 247.658 541.942 243.088 539.921 C 240.575 538.809, 236.390 536.533, 233.788 534.864 C 231.187 533.195, 226.907 530.988, 224.279 529.961 L 219.500 528.094 223.187 528.047 C 225.214 528.021, 230.614 527.103, 235.187 526.007 L 243.500 524.014 249.072 524.007 L 254.644 524 259.266 525.575 L 263.889 527.150 268.348 531.075 L 272.807 535 275.653 534.959 C 277.219 534.936, 281.820 534.145, 285.878 533.200 L 293.256 531.482 286.430 526.241 L 279.605 521 276.052 520.893 C 274.099 520.834, 268.450 520.697, 263.500 520.589 L 254.500 520.393 249.040 521.696 C 241.946 523.390, 238.509 523.340, 232.149 521.452 L 226.935 519.903 218.919 514.445 C 214.510 511.442, 209.349 508.337, 207.451 507.544 C 203.091 505.722, 203.039 504.970, 207.323 505.665 L 210.645 506.204 220.532 504.520 L 230.419 502.836 234.960 503.501 C 237.457 503.866, 241.367 504.983, 243.649 505.982 L 247.798 507.798 251.938 511.938 L 256.077 516.077 264.519 515.788 L 272.960 515.500 264.606 507.797 L 256.251 500.094 245.376 498.918 C 239.394 498.272, 233.375 497.898, 232 498.088 C 230.625 498.277, 225.900 498.447, 221.500 498.466 L 213.500 498.500 208.979 496.272 L 204.459 494.044 197.979 488.476 C 194.416 485.414, 189.813 482.020, 187.750 480.934 C 185.688 479.848, 184 478.695, 184 478.373 L 184 477.786 185.750 478.464 L 187.500 479.141 200.945 479.055 L 214.390 478.969 219.439 480.646 L 224.489 482.323 229.851 487.815 L 235.213 493.307 239.356 494.110 C 241.635 494.552, 245.242 494.932, 247.372 494.956 L 251.244 495 249.872 493.129 C 238.509 477.632, 236.558 476.284, 222.795 474.428 L 211.500 472.904 202 472.702 L 192.500 472.500 187.343 469.500 L 182.187 466.500 172.537 457.304 L 162.887 448.107 166.194 449.086 L 169.500 450.065 181.008 450.893 L 192.516 451.721 197.608 454.301 L 202.699 456.881 205.385 460.191 C 206.862 462.011, 209.067 464.742, 210.285 466.260 L 212.500 469.019 220.674 470.097 C 225.170 470.691, 229.554 471.024, 230.417 470.838 L 231.984 470.500 226.742 462.599 L 221.500 454.699 214.165 451.907 C 210.131 450.371, 204.281 447.798, 201.165 446.189 L 195.500 443.264 190.531 442.538 L 185.562 441.812 181.031 439.492 L 176.500 437.173 172.850 433.336 C 170.843 431.226, 167.309 426.350, 164.996 422.500 C 162.683 418.650, 159.628 414.262, 158.208 412.750 C 155.148 409.491, 155.742 409.317, 160.918 411.958 C 163.029 413.035, 167.849 414.687, 171.628 415.629 C 180.462 417.830, 183.548 419.142, 188.697 422.885 L 192.894 425.936 196.526 433.488 L 200.159 441.040 203.955 442.977 C 208.005 445.043, 218 448.994, 218 448.529 C 218 448.375, 216.052 444.031, 213.670 438.875 C 211.289 433.719, 208.476 427.064, 207.420 424.087 L 205.500 418.674 200.106 416.286 C 197.139 414.972, 192.783 412.571, 190.426 410.949 C 188.068 409.327, 185.513 408, 184.748 408 C 183.983 408, 181.276 407.291, 178.734 406.425 L 174.111 404.850 169.632 400.907 L 165.153 396.965 159.561 386.032 C 156.485 380.018, 153.525 374.825, 152.984 374.490 C 152.443 374.156, 152 373.440, 152 372.899 L 152 371.916 156.250 374.347 C 158.588 375.684, 162.300 377.339, 164.500 378.026 C 173.835 380.937, 181.697 385.847, 185.698 391.266 L 188.086 394.500 189.664 400 C 191.622 406.827, 192.221 407.571, 198.187 410.595 L 203 413.034 202.953 411.767 C 202.928 411.070, 201.898 406.773, 200.665 402.218 L 198.424 393.936 195.424 392.112 C 193.774 391.108, 189.516 387.133, 185.962 383.277 L 179.500 376.267 175.170 373.448 L 170.841 370.629 168.065 366.564 C 164.942 361.991, 163.417 357.705, 162.440 350.750 L 161.773 346 133.386 346 L 105 346 105.001 354.250 M 178 346.592 C 178 346.918, 178.908 348.339, 180.018 349.750 L 182.036 352.315 183.574 357.605 L 185.111 362.895 184.452 368.722 L 183.793 374.549 190.463 381.524 L 197.133 388.500 196.522 383.500 C 196.186 380.750, 195.467 374.701, 194.923 370.059 L 193.935 361.617 190.974 357.146 C 189.345 354.687, 187.469 351.173, 186.805 349.338 L 185.598 346 181.799 346 L 178 346 178 346.592 M 203.084 350.544 C 201.978 353.043, 200.103 356.450, 198.918 358.116 L 196.762 361.143 198.518 372.761 C 199.484 379.151, 200.574 385.500, 200.941 386.870 L 201.607 389.361 203.837 386.229 C 205.064 384.506, 207.119 380.713, 208.404 377.798 L 210.741 372.500 209.803 370 C 209.288 368.625, 208.481 365.475, 208.011 363 L 207.156 358.500 208.007 354 C 208.475 351.525, 209.163 348.712, 209.536 347.750 L 210.214 346 207.654 346 L 205.094 346 203.084 350.544 M 228.589 350.257 L 227.950 354.514 225.632 359.507 L 223.314 364.500 219.269 368.146 L 215.223 371.793 213.993 375.646 C 212.378 380.702, 207.592 389.154, 205.032 391.471 L 203 393.310 203 394.837 C 203 395.677, 203.968 399.951, 205.151 404.336 L 207.302 412.307 208.638 410.480 L 209.974 408.653 209.906 399.904 L 209.838 391.155 211.806 386.705 L 213.775 382.255 217.481 378.153 C 219.519 375.897, 224.248 371.781, 227.990 369.007 L 234.794 363.963 236.477 361.395 L 238.160 358.826 238.696 359.362 L 239.231 359.898 238.053 363.199 C 237.406 365.015, 236.244 370.635, 235.471 375.690 L 234.067 384.879 231.809 389.690 L 229.551 394.500 225.333 398.605 L 221.115 402.710 218.145 403.940 L 215.174 405.171 214.536 407.714 C 214.185 409.113, 212.825 411.836, 211.514 413.765 L 209.130 417.273 211.171 422.886 C 212.294 425.974, 215.420 433.182, 218.118 438.904 L 223.025 449.309 223.631 448.702 L 224.238 448.096 222.980 438.227 L 221.722 428.358 222.188 420.312 L 222.654 412.266 225.329 407.701 L 228.004 403.136 234.139 397.818 C 237.514 394.893, 242.919 390.063, 246.151 387.084 L 252.028 381.669 250.515 385.957 C 249.683 388.316, 248.387 394.353, 247.635 399.373 L 246.267 408.500 244.052 413.190 L 241.837 417.879 237.110 422.190 C 234.510 424.560, 230.901 427.293, 229.089 428.262 L 225.795 430.024 226.398 431.595 C 226.730 432.460, 227.286 436.871, 227.634 441.400 L 228.267 449.633 227.047 451.912 L 225.827 454.191 231.582 462.839 L 237.337 471.488 237.725 470.325 C 237.938 469.686, 236.912 463.198, 235.444 455.908 L 232.776 442.653 233.396 438.125 L 234.017 433.596 236.044 429.409 L 238.071 425.222 244.513 417.672 C 248.057 413.519, 251.824 408.693, 252.886 406.946 L 254.817 403.772 254.659 419.636 L 254.500 435.500 251.694 441.214 L 248.888 446.929 244.307 450.961 L 239.725 454.994 240.995 460.974 L 242.264 466.955 241.650 471.727 L 241.037 476.500 249.070 485.750 C 253.488 490.837, 257.515 495, 258.019 495 L 258.936 495 258.218 493.227 C 257.823 492.252, 256.077 488.989, 254.337 485.977 L 251.173 480.500 249.464 474.572 L 247.755 468.644 248.266 462.999 L 248.778 457.355 250.994 452.928 C 252.212 450.492, 255.203 445.930, 257.641 442.788 C 260.078 439.647, 263.113 435.244, 264.386 433.004 L 266.699 428.931 267.547 438.215 C 268.013 443.322, 268.376 450.875, 268.353 455 L 268.313 462.500 266.053 467.236 L 263.793 471.972 259.867 475.898 L 255.941 479.824 259.549 486.388 L 263.157 492.952 262.852 496.500 L 262.546 500.048 270.523 507 C 274.910 510.823, 278.825 513.963, 279.223 513.976 C 279.621 513.989, 277.224 508.488, 273.896 501.750 L 267.846 489.500 268.174 481.895 L 268.502 474.289 274.263 462.895 L 280.024 451.500 280.012 449.691 L 280 447.882 281 448.500 L 282 449.118 282.013 452.309 L 282.026 455.500 284.513 463.288 L 287 471.076 286.978 478.288 L 286.956 485.500 284.981 489.852 C 283.895 492.245, 281.887 495.534, 280.519 497.160 L 278.030 500.117 281.015 506.030 L 284 511.943 284 515.253 L 284 518.563 291.500 524.336 L 299 530.109 299 528.423 L 299 526.737 294.055 518.097 L 289.111 509.456 288.026 504.614 L 286.941 499.773 287.980 494.136 L 289.020 488.500 292.632 481 C 294.618 476.875, 296.804 471.475, 297.489 469 L 298.734 464.500 299.409 467.500 C 299.781 469.150, 301.641 475.281, 303.543 481.124 L 307 491.747 307 496.215 L 307 500.682 305.584 505.386 L 304.169 510.090 301.457 513.645 L 298.745 517.200 300.977 521.669 L 303.209 526.137 303.714 529.906 L 304.220 533.676 310.965 537.838 C 320.665 543.824, 320.921 543.466, 315.484 531.534 C 313.550 527.291, 311.508 521.765, 310.945 519.255 L 309.922 514.691 311.045 509.096 L 312.167 503.500 315.671 496.315 C 317.598 492.363, 319.750 486.963, 320.454 484.315 L 321.734 479.500 322.373 482.500 C 322.725 484.150, 324.387 489.612, 326.067 494.637 L 329.121 503.774 329.682 509.212 L 330.244 514.650 328.648 520.139 L 327.052 525.628 324.142 529.645 L 321.232 533.663 322.169 535.338 C 322.685 536.259, 323.431 538.914, 323.828 541.238 L 324.549 545.464 331.455 548.335 C 335.253 549.914, 342.474 552.250, 347.502 553.526 L 356.644 555.845 366.659 557.009 L 376.674 558.173 386.587 556.990 L 396.500 555.807 405.522 553.519 C 410.484 552.261, 417.678 549.904, 421.508 548.281 L 428.473 545.331 429.184 541.172 C 429.574 538.884, 430.302 536.283, 430.801 535.391 L 431.709 533.769 428.374 528.812 L 425.038 523.856 423.905 519.678 L 422.772 515.500 423.327 509.478 L 423.882 503.456 426.941 495.160 L 430 486.864 430 483.932 L 430 481 430.875 481 L 431.750 481 432.385 484.174 C 432.734 485.919, 434.421 490.307, 436.135 493.924 C 437.848 497.541, 439.869 502.244, 440.625 504.376 L 442 508.251 441.976 514.876 L 441.952 521.500 437.545 531.500 L 433.139 541.500 433.971 541.801 C 434.430 541.966, 437.998 540.188, 441.902 537.850 L 449 533.599 449 530.496 L 449 527.393 451.556 522.264 L 454.111 517.136 451.151 513.050 L 448.191 508.963 446.970 503.875 L 445.750 498.788 446.360 493.598 L 446.970 488.408 449.985 479.706 L 453 471.004 453 468.561 L 453 466.118 453.890 465.568 L 454.781 465.018 455.435 468.506 L 456.090 471.995 460.035 480.247 L 463.981 488.500 464.965 493.750 L 465.948 499 464.978 504.114 L 464.009 509.227 459.004 517.898 L 454 526.569 454 528.339 L 454 530.109 461.500 524.336 L 469 518.563 469 515.253 L 469 511.943 471.985 506.030 L 474.970 500.117 472.481 497.160 C 471.113 495.534, 469.105 492.245, 468.019 489.852 L 466.044 485.500 466.022 478.355 L 466 471.211 468.129 464.355 C 469.300 460.585, 470.576 455.250, 470.965 452.500 L 471.673 447.500 472.429 449.500 C 472.845 450.600, 475.731 456.628, 478.842 462.895 L 484.498 474.289 484.826 481.895 L 485.154 489.500 479.104 501.750 C 472.031 516.070, 472.067 516.124, 482.470 506.926 L 490.439 499.880 490.141 496.416 L 489.843 492.952 493.409 486.464 L 496.976 479.976 493.161 476.161 L 489.346 472.346 486.941 467.423 L 484.536 462.500 484.548 455 C 484.555 450.875, 484.956 443.277, 485.439 438.116 L 486.319 428.731 488.310 432.616 C 489.405 434.752, 492.294 438.947, 494.729 441.938 C 497.164 444.929, 500.307 449.645, 501.712 452.418 L 504.267 457.461 504.740 463.481 L 505.213 469.500 503.069 475.829 C 501.890 479.309, 499.798 483.944, 498.420 486.127 C 497.041 488.311, 495.494 491.200, 494.982 492.549 L 494.050 495 494.924 495 C 495.405 495, 499.435 490.837, 503.880 485.750 L 511.961 476.500 511.348 471.727 L 510.736 466.955 512.005 460.974 L 513.275 454.994 508.590 450.870 L 503.905 446.747 501.227 441.623 L 498.549 436.500 498.388 420.172 L 498.227 403.844 500.250 407.172 C 501.362 409.002, 504.616 413.200, 507.479 416.500 C 510.343 419.800, 513.869 424.272, 515.314 426.439 L 517.941 430.378 519.143 435.746 L 520.344 441.115 519.115 447.808 C 518.439 451.488, 517.197 457.502, 516.355 461.171 L 514.823 467.843 515.216 469.671 L 515.608 471.500 521.352 462.773 L 527.095 454.047 526.048 452.089 L 525 450.131 525.060 444.816 C 525.092 441.892, 525.478 437.317, 525.917 434.648 L 526.714 429.797 523.607 427.967 C 511.371 420.763, 507.196 414.039, 505 398 C 504.395 393.583, 503.249 388.064, 502.452 385.735 L 501.004 381.500 504.366 385.087 C 506.215 387.060, 510.395 390.726, 513.655 393.235 C 520.595 398.575, 526.189 404.543, 528.612 409.190 L 530.338 412.500 530.807 420.425 L 531.277 428.350 529.976 438.179 L 528.675 448.009 529.332 448.665 L 529.988 449.321 534.862 438.911 C 537.543 433.185, 540.670 425.965, 541.811 422.866 L 543.885 417.233 541.495 413.993 L 539.105 410.753 538.494 407.974 L 537.884 405.195 534.884 403.952 L 531.885 402.710 527.667 398.605 L 523.449 394.500 521.191 389.690 L 518.933 384.879 517.529 375.690 C 516.756 370.635, 515.594 365.015, 514.947 363.199 C 513.379 358.805, 514.284 358.186, 516.902 361.863 L 519.023 364.841 525.312 369.329 C 528.772 371.797, 533.317 375.716, 535.414 378.036 L 539.225 382.255 541.194 386.705 L 543.162 391.155 543.094 399.904 L 543.026 408.653 544.327 410.433 L 545.628 412.212 547.814 404.236 C 550.556 394.229, 550.681 395.352, 546.164 389.341 L 542.328 384.236 540.015 378.368 L 537.701 372.500 533.454 368 L 529.207 363.500 527.199 359.477 L 525.190 355.453 524.482 350.727 L 523.773 346 376.500 346 L 229.227 346 228.589 350.257 M 543.553 347.750 C 543.975 348.712, 544.521 352.745, 544.767 356.711 L 545.215 363.922 543.701 368.365 L 542.186 372.809 544.588 377.993 C 545.909 380.845, 547.990 384.582, 549.212 386.298 L 551.435 389.419 552.181 385.960 C 552.592 384.057, 553.654 377.668, 554.541 371.762 L 556.154 361.025 554.040 358.056 C 552.878 356.424, 551.022 353.043, 549.916 350.544 L 547.906 346 545.346 346 L 542.786 346 543.553 347.750 M 565.538 350.539 C 564.585 353.036, 562.780 356.299, 561.528 357.789 L 559.251 360.500 557.555 373.846 C 555.510 389.938, 555.313 389.648, 562.767 381.513 L 568.785 374.945 568.678 366.223 L 568.572 357.500 570.771 353.318 C 571.981 351.018, 573.428 348.854, 573.986 348.509 C 574.544 348.164, 575 347.459, 575 346.941 L 575 346 571.136 346 L 567.272 346 565.538 350.539" stroke="none" fill="#00a0e9" fill-rule="evenodd"/></svg>